M48
;Layer_Color=6321
;FILE_FORMAT=4:4
METRIC,LZ
;TYPE=PLATED
T1F00S00C0.3000
T2F00S00C1.0000
%
T01
X003875Y003875
X004825Y0039
X004735Y0034
X00545
X0055Y004175
X005725Y0041802
X00535Y004325
X00545Y00455
Y004775
X005225Y00465
X00475Y00455
X00465Y004325
X0042271Y0041729
X004275Y005
X004275Y0052
X005425Y00515
X0037Y004675
X003725Y004175
T02
X0035433Y0030099
X0040513
X0045593
X0048133
X0050673
X0053213
M30
