G04*
G04 #@! TF.GenerationSoftware,Altium Limited,CircuitStudio,1.5.2 (1.5.2.30)*
G04*
G04 Layer_Physical_Order=2*
G04 Layer_Color=12500520*
%FSLAX44Y44*%
%MOMM*%
G71*
G01*
G75*
%ADD19C,0.2540*%
%ADD20C,0.5000*%
%ADD21C,1.5240*%
%ADD22R,1.5240X1.5240*%
%ADD23C,0.6000*%
G36*
X590000Y260000D02*
X270000D01*
Y540000D01*
X590000D01*
Y260000D01*
D02*
G37*
%LPC*%
G36*
X549255Y339350D02*
X545650D01*
Y335745D01*
X546678Y335950D01*
X548100Y336900D01*
X549050Y338322D01*
X549255Y339350D01*
D02*
G37*
G36*
X472850Y344255D02*
X471822Y344050D01*
X470400Y343100D01*
X469450Y341678D01*
X469245Y340650D01*
X472850D01*
Y344255D01*
D02*
G37*
G36*
X544350Y339350D02*
X540745D01*
X540950Y338322D01*
X541900Y336900D01*
X543322Y335950D01*
X544350Y335745D01*
Y339350D01*
D02*
G37*
G36*
X472850D02*
X469245D01*
X469450Y338322D01*
X470400Y336900D01*
X471822Y335950D01*
X472850Y335745D01*
Y339350D01*
D02*
G37*
G36*
X477755D02*
X474150D01*
Y335745D01*
X475178Y335950D01*
X476600Y336900D01*
X477551Y338322D01*
X477755Y339350D01*
D02*
G37*
G36*
X482500Y395649D02*
X480338Y395219D01*
X478506Y393994D01*
X477281Y392162D01*
X477127Y391385D01*
X391567D01*
X391494Y391494D01*
X389662Y392719D01*
X387500Y393148D01*
X385338Y392719D01*
X383506Y391494D01*
X382281Y389662D01*
X381852Y387500D01*
X382281Y385338D01*
X383506Y383506D01*
X385338Y382281D01*
X387500Y381852D01*
X389662Y382281D01*
X391494Y383506D01*
X391567Y383615D01*
X480000D01*
X481487Y383911D01*
X482227Y384406D01*
X482500Y384352D01*
X484662Y384781D01*
X486494Y386006D01*
X487719Y387838D01*
X488148Y390000D01*
X487719Y392162D01*
X486494Y393994D01*
X484662Y395219D01*
X482500Y395649D01*
D02*
G37*
G36*
X372500Y423148D02*
X370338Y422719D01*
X368506Y421494D01*
X367281Y419662D01*
X366852Y417500D01*
X367281Y415338D01*
X368506Y413506D01*
X370338Y412281D01*
X372500Y411851D01*
X374662Y412281D01*
X376494Y413506D01*
X377719Y415338D01*
X378148Y417500D01*
X377719Y419662D01*
X376494Y421494D01*
X374662Y422719D01*
X372500Y423148D01*
D02*
G37*
G36*
X545650Y344255D02*
Y340650D01*
X549255D01*
X549050Y341678D01*
X548100Y343100D01*
X546678Y344050D01*
X545650Y344255D01*
D02*
G37*
G36*
X474150D02*
Y340650D01*
X477755D01*
X477551Y341678D01*
X476600Y343100D01*
X475178Y344050D01*
X474150Y344255D01*
D02*
G37*
G36*
X544350D02*
X543322Y344050D01*
X541900Y343100D01*
X540950Y341678D01*
X540745Y340650D01*
X544350D01*
Y344255D01*
D02*
G37*
G36*
X405130Y328695D02*
X400796Y328354D01*
X396568Y327339D01*
X392552Y325676D01*
X388845Y323404D01*
X385539Y320581D01*
X383220Y317865D01*
X381950Y318334D01*
Y328610D01*
X326710D01*
Y273370D01*
X381950D01*
Y283646D01*
X383220Y284115D01*
X385539Y281399D01*
X388845Y278576D01*
X392552Y276304D01*
X396568Y274641D01*
X400796Y273626D01*
X405130Y273285D01*
X409464Y273626D01*
X413691Y274641D01*
X417708Y276304D01*
X421415Y278576D01*
X424721Y281399D01*
X427544Y284705D01*
X429816Y288412D01*
X431479Y292428D01*
X432494Y296656D01*
X432835Y300990D01*
X432494Y305324D01*
X431479Y309552D01*
X429816Y313568D01*
X427544Y317275D01*
X424721Y320581D01*
X421415Y323404D01*
X417708Y325676D01*
X413691Y327339D01*
X409464Y328354D01*
X405130Y328695D01*
D02*
G37*
G36*
X464841Y300340D02*
X456580D01*
Y292079D01*
X458259Y292300D01*
X460429Y293198D01*
X462292Y294628D01*
X463722Y296492D01*
X464620Y298661D01*
X464841Y300340D01*
D02*
G37*
G36*
X531480D02*
X523219D01*
X523440Y298661D01*
X524338Y296492D01*
X525768Y294628D01*
X527631Y293198D01*
X529801Y292300D01*
X531480Y292079D01*
Y300340D01*
D02*
G37*
G36*
X455280D02*
X447019D01*
X447240Y298661D01*
X448138Y296492D01*
X449568Y294628D01*
X451432Y293198D01*
X453601Y292300D01*
X455280Y292079D01*
Y300340D01*
D02*
G37*
G36*
X481330Y311238D02*
X478678Y310889D01*
X476206Y309865D01*
X474084Y308236D01*
X472455Y306114D01*
X471432Y303642D01*
X471082Y300990D01*
X471432Y298338D01*
X472455Y295866D01*
X474084Y293744D01*
X476206Y292115D01*
X478678Y291091D01*
X481330Y290742D01*
X483982Y291091D01*
X486454Y292115D01*
X488576Y293744D01*
X490205Y295866D01*
X491228Y298338D01*
X491578Y300990D01*
X491228Y303642D01*
X490205Y306114D01*
X488576Y308236D01*
X486454Y309865D01*
X483982Y310889D01*
X481330Y311238D01*
D02*
G37*
G36*
X506730D02*
X504078Y310889D01*
X501606Y309865D01*
X499484Y308236D01*
X497855Y306114D01*
X496832Y303642D01*
X496482Y300990D01*
X496832Y298338D01*
X497855Y295866D01*
X499484Y293744D01*
X501606Y292115D01*
X504078Y291091D01*
X506730Y290742D01*
X509382Y291091D01*
X511854Y292115D01*
X513976Y293744D01*
X515605Y295866D01*
X516628Y298338D01*
X516978Y300990D01*
X516628Y303642D01*
X515605Y306114D01*
X513976Y308236D01*
X511854Y309865D01*
X509382Y310889D01*
X506730Y311238D01*
D02*
G37*
G36*
X531480Y309901D02*
X529801Y309680D01*
X527631Y308782D01*
X525768Y307352D01*
X524338Y305488D01*
X523440Y303319D01*
X523219Y301640D01*
X531480D01*
Y309901D01*
D02*
G37*
G36*
X532780D02*
Y301640D01*
X541041D01*
X540820Y303319D01*
X539922Y305488D01*
X538492Y307352D01*
X536628Y308782D01*
X534459Y309680D01*
X532780Y309901D01*
D02*
G37*
G36*
X456580D02*
Y301640D01*
X464841D01*
X464620Y303319D01*
X463722Y305488D01*
X462292Y307352D01*
X460429Y308782D01*
X458259Y309680D01*
X456580Y309901D01*
D02*
G37*
G36*
X541041Y300340D02*
X532780D01*
Y292079D01*
X534459Y292300D01*
X536628Y293198D01*
X538492Y294628D01*
X539922Y296492D01*
X540820Y298661D01*
X541041Y300340D01*
D02*
G37*
G36*
X455280Y309901D02*
X453601Y309680D01*
X451432Y308782D01*
X449568Y307352D01*
X448138Y305488D01*
X447240Y303319D01*
X447019Y301640D01*
X455280D01*
Y309901D01*
D02*
G37*
G36*
X422060Y416640D02*
X418455D01*
X418660Y415612D01*
X419610Y414190D01*
X421032Y413240D01*
X422060Y413035D01*
Y416640D01*
D02*
G37*
G36*
X549255Y476850D02*
X545650D01*
Y473245D01*
X546678Y473449D01*
X548100Y474400D01*
X549050Y475822D01*
X549255Y476850D01*
D02*
G37*
G36*
X544350Y481755D02*
X543322Y481550D01*
X541900Y480600D01*
X540949Y479178D01*
X540745Y478150D01*
X544350D01*
Y481755D01*
D02*
G37*
G36*
Y476850D02*
X540745D01*
X540949Y475822D01*
X541900Y474400D01*
X543322Y473449D01*
X544350Y473245D01*
Y476850D01*
D02*
G37*
G36*
X535000Y438148D02*
X532838Y437719D01*
X531006Y436494D01*
X530933Y436385D01*
X469067D01*
X468994Y436494D01*
X467162Y437719D01*
X465000Y438148D01*
X462838Y437719D01*
X461006Y436494D01*
X459781Y434662D01*
X459352Y432500D01*
X459781Y430338D01*
X461006Y428506D01*
X462838Y427281D01*
X465000Y426852D01*
X467162Y427281D01*
X468994Y428506D01*
X469067Y428615D01*
X530933D01*
X531006Y428506D01*
X532838Y427281D01*
X535000Y426852D01*
X537162Y427281D01*
X538994Y428506D01*
X540219Y430338D01*
X540648Y432500D01*
X540219Y434662D01*
X538994Y436494D01*
X537162Y437719D01*
X535000Y438148D01*
D02*
G37*
G36*
X370000Y473148D02*
X367838Y472719D01*
X366006Y471494D01*
X364781Y469662D01*
X364352Y467500D01*
X364781Y465338D01*
X366006Y463506D01*
X367838Y462281D01*
X370000Y461852D01*
X372162Y462281D01*
X373994Y463506D01*
X374067Y463615D01*
X517127D01*
X517281Y462838D01*
X518506Y461006D01*
X519780Y460154D01*
X519394Y458885D01*
X479067D01*
X478994Y458994D01*
X477161Y460218D01*
X475000Y460648D01*
X472838Y460218D01*
X471006Y458994D01*
X469781Y457161D01*
X469351Y455000D01*
X469781Y452838D01*
X471006Y451006D01*
X472838Y449781D01*
X475000Y449351D01*
X477161Y449781D01*
X478994Y451006D01*
X479067Y451115D01*
X540933D01*
X541006Y451006D01*
X542838Y449781D01*
X545000Y449351D01*
X547161Y449781D01*
X548994Y451006D01*
X550218Y452838D01*
X550648Y455000D01*
X550218Y457161D01*
X548994Y458994D01*
X547161Y460218D01*
X545000Y460648D01*
X542838Y460218D01*
X541006Y458994D01*
X540933Y458885D01*
X525605D01*
X525220Y460154D01*
X526494Y461006D01*
X527718Y462838D01*
X528148Y465000D01*
X527718Y467161D01*
X526494Y468994D01*
X524661Y470218D01*
X522500Y470648D01*
X522227Y470594D01*
X521486Y471089D01*
X520000Y471385D01*
X374067D01*
X373994Y471494D01*
X372162Y472719D01*
X370000Y473148D01*
D02*
G37*
G36*
X545650Y481755D02*
Y478150D01*
X549255D01*
X549050Y479178D01*
X548100Y480600D01*
X546678Y481550D01*
X545650Y481755D01*
D02*
G37*
G36*
X426850Y524255D02*
X425822Y524050D01*
X424400Y523100D01*
X423450Y521678D01*
X423245Y520650D01*
X426850D01*
Y524255D01*
D02*
G37*
G36*
X428150D02*
Y520650D01*
X431755D01*
X431550Y521678D01*
X430600Y523100D01*
X429178Y524050D01*
X428150Y524255D01*
D02*
G37*
G36*
X431755Y519350D02*
X428150D01*
Y515745D01*
X429178Y515950D01*
X430600Y516900D01*
X431550Y518322D01*
X431755Y519350D01*
D02*
G37*
G36*
X542500Y520648D02*
X540338Y520218D01*
X538506Y518994D01*
X538433Y518885D01*
X442500D01*
X441013Y518589D01*
X439753Y517747D01*
X427629Y505623D01*
X427500Y505648D01*
X425338Y505218D01*
X423506Y503994D01*
X422281Y502161D01*
X421851Y500000D01*
X422281Y497838D01*
X423506Y496006D01*
X425338Y494781D01*
X427500Y494351D01*
X429661Y494781D01*
X431494Y496006D01*
X432718Y497838D01*
X433148Y500000D01*
X433123Y500129D01*
X444109Y511115D01*
X538433D01*
X538506Y511006D01*
X540338Y509781D01*
X542500Y509351D01*
X544661Y509781D01*
X546494Y511006D01*
X547718Y512838D01*
X548148Y515000D01*
X547718Y517161D01*
X546494Y518994D01*
X544661Y520218D01*
X542500Y520648D01*
D02*
G37*
G36*
X426850Y519350D02*
X423245D01*
X423450Y518322D01*
X424400Y516900D01*
X425822Y515950D01*
X426850Y515745D01*
Y519350D01*
D02*
G37*
G36*
X571850Y417370D02*
X568245D01*
X568450Y416342D01*
X569400Y414920D01*
X570822Y413969D01*
X571850Y413765D01*
Y417370D01*
D02*
G37*
G36*
X576755D02*
X573150D01*
Y413765D01*
X574178Y413969D01*
X575600Y414920D01*
X576550Y416342D01*
X576755Y417370D01*
D02*
G37*
G36*
X554255Y416850D02*
X550650D01*
Y413245D01*
X551678Y413450D01*
X553100Y414400D01*
X554050Y415822D01*
X554255Y416850D01*
D02*
G37*
G36*
X426965Y416640D02*
X423360D01*
Y413035D01*
X424388Y413240D01*
X425810Y414190D01*
X426761Y415612D01*
X426965Y416640D01*
D02*
G37*
G36*
X549350Y416850D02*
X545745D01*
X545950Y415822D01*
X546900Y414400D01*
X548322Y413450D01*
X549350Y413245D01*
Y416850D01*
D02*
G37*
G36*
X422060Y421545D02*
X421032Y421340D01*
X419610Y420390D01*
X418660Y418968D01*
X418455Y417940D01*
X422060D01*
Y421545D01*
D02*
G37*
G36*
X571850Y422275D02*
X570822Y422071D01*
X569400Y421120D01*
X568450Y419698D01*
X568245Y418670D01*
X571850D01*
Y422275D01*
D02*
G37*
G36*
X573150D02*
Y418670D01*
X576755D01*
X576550Y419698D01*
X575600Y421120D01*
X574178Y422071D01*
X573150Y422275D01*
D02*
G37*
G36*
X550650Y421755D02*
Y418150D01*
X554255D01*
X554050Y419178D01*
X553100Y420600D01*
X551678Y421550D01*
X550650Y421755D01*
D02*
G37*
G36*
X423360Y421545D02*
Y417940D01*
X426965D01*
X426761Y418968D01*
X425810Y420390D01*
X424388Y421340D01*
X423360Y421545D01*
D02*
G37*
G36*
X549350Y421755D02*
X548322Y421550D01*
X546900Y420600D01*
X545950Y419178D01*
X545745Y418150D01*
X549350D01*
Y421755D01*
D02*
G37*
%LPD*%
D19*
X475000Y455000D02*
X545000D01*
X520000Y467500D02*
X522500Y465000D01*
X465000Y432500D02*
X535000D01*
X442500Y515000D02*
X542500D01*
X427500Y500000D02*
X442500Y515000D01*
X480000Y387500D02*
X482500Y390000D01*
X387500Y387500D02*
X480000D01*
X370000Y467500D02*
X520000D01*
D20*
X260000Y250000D02*
X600000D01*
Y550000D01*
X260000D02*
X600000D01*
X260000Y250000D02*
Y550000D01*
D21*
X481330Y300990D02*
D03*
X455930D02*
D03*
X405130D02*
D03*
X506730D02*
D03*
X532130D02*
D03*
D22*
X354330D02*
D03*
D23*
X475000Y455000D02*
D03*
X522500Y465000D02*
D03*
X545000Y455000D02*
D03*
X535000Y432500D02*
D03*
X545000Y477500D02*
D03*
X542500Y515000D02*
D03*
X427500Y500000D02*
D03*
X465000Y432500D02*
D03*
X427500Y520000D02*
D03*
X387500Y387500D02*
D03*
X482500Y390000D02*
D03*
X372500Y417500D02*
D03*
X370000Y467500D02*
D03*
X422710Y417290D02*
D03*
X473500Y340000D02*
D03*
X572500Y418020D02*
D03*
X550000Y417500D02*
D03*
X545000Y340000D02*
D03*
M02*
