G04*
G04 #@! TF.GenerationSoftware,Altium Limited,CircuitStudio,1.5.2 (1.5.2.30)*
G04*
G04 Layer_Color=20142*
%FSLAX44Y44*%
%MOMM*%
G71*
G01*
G75*
%ADD20C,0.5000*%
%ADD30R,1.1176X1.0160*%
%ADD31R,1.0160X1.1176*%
%ADD32R,0.9032X1.5032*%
%ADD33R,1.5032X0.9032*%
%ADD34R,1.5032X1.8032*%
%ADD35R,1.1032X1.8032*%
%ADD36R,1.8032X1.5032*%
%ADD37R,1.8032X1.1032*%
%ADD38R,1.3832X0.7832*%
%ADD39C,1.7272*%
%ADD40R,1.7272X1.7272*%
%ADD41C,0.8032*%
D20*
X260000Y250000D02*
X600000D01*
Y550000D01*
X260000D02*
X600000D01*
X260000Y250000D02*
Y550000D01*
D30*
X575388Y504076D02*
D03*
X554212Y494424D02*
D03*
Y513576D02*
D03*
X358088Y417576D02*
D03*
X336912Y407924D02*
D03*
Y427076D02*
D03*
X509412Y349924D02*
D03*
X530588Y359576D02*
D03*
Y340424D02*
D03*
D31*
X564876Y455312D02*
D03*
X555224Y476488D02*
D03*
X574376D02*
D03*
D32*
X572000Y532500D02*
D03*
X553000D02*
D03*
X574500Y435000D02*
D03*
X555500D02*
D03*
X357000Y447500D02*
D03*
X338000D02*
D03*
Y467500D02*
D03*
X357000D02*
D03*
X427000Y445000D02*
D03*
X408000D02*
D03*
D33*
X463720Y500210D02*
D03*
Y519210D02*
D03*
X484040D02*
D03*
Y500210D02*
D03*
X442500Y519500D02*
D03*
Y500500D02*
D03*
X504000Y500250D02*
D03*
Y519250D02*
D03*
X300000Y447000D02*
D03*
Y428000D02*
D03*
Y409500D02*
D03*
Y390500D02*
D03*
Y372000D02*
D03*
Y353000D02*
D03*
X487500Y340500D02*
D03*
Y359500D02*
D03*
X550000Y388000D02*
D03*
Y407000D02*
D03*
X527500D02*
D03*
Y388000D02*
D03*
D34*
X464380Y481730D02*
D03*
X483380D02*
D03*
D35*
X405500Y335000D02*
D03*
X434500D02*
D03*
D36*
X573490Y404200D02*
D03*
Y385200D02*
D03*
X422710Y402410D02*
D03*
Y383410D02*
D03*
D37*
X299330Y331170D02*
D03*
Y302170D02*
D03*
D38*
X447990Y380610D02*
D03*
Y393310D02*
D03*
Y406010D02*
D03*
Y418710D02*
D03*
Y431410D02*
D03*
Y444110D02*
D03*
Y456810D02*
D03*
X501190D02*
D03*
Y444110D02*
D03*
Y431410D02*
D03*
Y418710D02*
D03*
Y406010D02*
D03*
Y393310D02*
D03*
Y380610D02*
D03*
D39*
X481330Y300990D02*
D03*
X455930D02*
D03*
X405130D02*
D03*
X506730D02*
D03*
X532130D02*
D03*
D40*
X354330D02*
D03*
D41*
X475000Y455000D02*
D03*
X522500Y465000D02*
D03*
X545000Y455000D02*
D03*
X535000Y432500D02*
D03*
X545000Y477500D02*
D03*
X542500Y515000D02*
D03*
X427500Y500000D02*
D03*
X465000Y432500D02*
D03*
X427500Y520000D02*
D03*
X387500Y387500D02*
D03*
X482500Y390000D02*
D03*
X372500Y417500D02*
D03*
X370000Y467500D02*
D03*
X422710Y417290D02*
D03*
X473500Y340000D02*
D03*
X572500Y418020D02*
D03*
X550000Y417500D02*
D03*
X545000Y340000D02*
D03*
M02*
