G04*
G04 #@! TF.GenerationSoftware,Altium Limited,CircuitStudio,1.5.2 (1.5.2.30)*
G04*
G04 Layer_Color=15065295*
%FSLAX44Y44*%
%MOMM*%
G71*
G01*
G75*
%ADD19C,0.2540*%
%ADD20C,0.5000*%
%ADD24C,0.2500*%
%ADD25C,0.0127*%
%ADD26C,0.2032*%
%ADD27C,0.1000*%
%ADD28C,0.2000*%
%ADD29C,0.1778*%
G36*
X348212Y343210D02*
X348210Y343206D01*
X348211Y343206D01*
X348543Y343069D01*
X348543Y343069D01*
X348888Y342926D01*
X348859Y342888D01*
X348426Y342374D01*
X348203Y342466D01*
Y342466D01*
X347995Y342552D01*
X347995Y342557D01*
X347995Y342557D01*
X347557Y342375D01*
X347564Y342367D01*
X347520Y342349D01*
X347438Y342149D01*
X347437Y342149D01*
X347322Y341873D01*
X347331Y341853D01*
X347391Y341854D01*
Y339989D01*
X346767D01*
Y343092D01*
X347391D01*
Y342820D01*
X347375Y342782D01*
X347391Y342761D01*
Y342820D01*
X347425Y342902D01*
X347750Y343037D01*
X347750Y343036D01*
X348191Y343219D01*
X348212Y343210D01*
D02*
G37*
G36*
X360867D02*
X360866Y343206D01*
X360866Y343206D01*
X361199Y343069D01*
X361199Y343069D01*
X361544Y342926D01*
X361514Y342888D01*
X361081Y342374D01*
X360858Y342466D01*
X360651Y342552D01*
X360650Y342557D01*
X360650Y342557D01*
X360212Y342375D01*
X360219Y342367D01*
X360176Y342349D01*
X360093Y342149D01*
X360092Y342149D01*
X359978Y341873D01*
X359986Y341853D01*
X360047Y341854D01*
Y339989D01*
X359422D01*
Y343092D01*
X360047D01*
Y342820D01*
X360031Y342782D01*
X360047Y342761D01*
Y342820D01*
X360081Y342902D01*
X360405Y343037D01*
X360406Y343036D01*
X360846Y343219D01*
X360867Y343210D01*
D02*
G37*
G36*
X351376Y339989D02*
X350752D01*
X350800Y340269D01*
X350772Y340201D01*
X350388Y340042D01*
X350388Y340043D01*
X349961Y339866D01*
X349949Y339871D01*
X349951Y339858D01*
X349942Y339854D01*
X349679Y339963D01*
X349680Y339968D01*
X349455Y340061D01*
X349455Y340061D01*
X349156Y340185D01*
X349094Y340334D01*
X349092Y340332D01*
X348923Y340740D01*
X348942Y340744D01*
X348881Y341055D01*
X348880Y341055D01*
X348821Y341505D01*
X348826Y341545D01*
X348828Y341544D01*
X348823Y341583D01*
X348881Y342027D01*
Y342027D01*
X348943Y342335D01*
X348924Y342338D01*
X349093Y342746D01*
X349091Y342747D01*
X349151Y342893D01*
X349454Y343018D01*
X349454Y343018D01*
X349681Y343112D01*
X349680Y343116D01*
X349942Y343225D01*
X349951Y343221D01*
X349949Y343198D01*
X349963Y343204D01*
X350386Y343029D01*
X350388Y343034D01*
X350752Y342790D01*
Y344344D01*
X351376D01*
Y339989D01*
D02*
G37*
G36*
X359505Y344928D02*
X358881D01*
Y345200D01*
X358846Y345116D01*
X358523Y344982D01*
X358523Y344983D01*
X358087Y344802D01*
X358066Y344810D01*
X358067Y344811D01*
X357707Y344960D01*
X357707Y344960D01*
X357324Y345118D01*
X357340Y345137D01*
X357247Y345175D01*
X357111Y345502D01*
Y345502D01*
X357023Y345715D01*
X357014Y345713D01*
X356912Y345960D01*
X356915Y345968D01*
X357027Y345968D01*
Y348031D01*
X357651D01*
X357588Y346181D01*
X357582Y346166D01*
X357693Y345898D01*
X357694Y345898D01*
X357794Y345656D01*
X357793Y345656D01*
X357795Y345652D01*
X358025Y345557D01*
X358024Y345556D01*
X358261Y345458D01*
X358270Y345462D01*
X358269Y345464D01*
X358277Y345460D01*
X358509Y345557D01*
X358509Y345557D01*
X358737Y345651D01*
X358739Y345656D01*
X358738Y345656D01*
X358838Y345898D01*
X358839Y345898D01*
X358950Y346166D01*
X358943Y346181D01*
X358881Y346180D01*
Y348031D01*
X359505D01*
Y344928D01*
D02*
G37*
G36*
X357945Y343074D02*
X357949Y343090D01*
X358355Y342921D01*
X358355Y342919D01*
X358483Y342867D01*
X358599Y342585D01*
Y342585D01*
X358689Y342369D01*
X358665Y342365D01*
X358717Y342103D01*
X358689Y342102D01*
Y339978D01*
X358085D01*
Y340252D01*
X358074Y340251D01*
X358012Y340102D01*
X357812Y340019D01*
X357812Y340019D01*
X357603Y339933D01*
X357599Y339959D01*
X357340Y339908D01*
X357327Y339911D01*
X357327Y339826D01*
X356875Y340013D01*
X356876Y340014D01*
X356504Y340168D01*
X356515Y340176D01*
X356469Y340196D01*
X356336Y340516D01*
X356336Y340516D01*
X356187Y340877D01*
X356192Y340890D01*
X356187Y340888D01*
X356182Y340900D01*
X356326Y341246D01*
X356326Y341246D01*
X356466Y341585D01*
X356472Y341580D01*
X356480Y341601D01*
X356818Y341741D01*
X356818Y341742D01*
X357236Y341915D01*
X357245Y341911D01*
X357244Y341810D01*
X358085D01*
X358112Y342137D01*
X358117Y342150D01*
X358047Y342318D01*
X358048Y342319D01*
X358006Y342419D01*
X357934Y342449D01*
X357935Y342451D01*
X357739Y342532D01*
X357742Y342547D01*
X357505Y342645D01*
X357462Y342627D01*
X357466Y342657D01*
X357457Y342661D01*
X357261Y342580D01*
X357264Y342559D01*
X357106Y342493D01*
X357106Y342491D01*
X356944Y342424D01*
X356892Y342299D01*
X356894Y342297D01*
X356892Y342299D01*
X356892Y342299D01*
X356390Y342692D01*
X356460Y342859D01*
X356844Y343018D01*
X356844Y343018D01*
X357114Y343130D01*
X357119Y343102D01*
X357398Y343157D01*
X357435Y343150D01*
X357434Y343157D01*
X357479Y343166D01*
X357945Y343074D01*
D02*
G37*
G36*
X345299D02*
X345303Y343090D01*
X345710Y342921D01*
X345709Y342919D01*
X345837Y342867D01*
X345953Y342585D01*
Y342585D01*
X346043Y342369D01*
X346019Y342365D01*
X346071Y342103D01*
X346043Y342102D01*
Y339978D01*
X345439D01*
Y340252D01*
X345428Y340251D01*
X345367Y340102D01*
X345167Y340019D01*
X345166Y340019D01*
X344957Y339933D01*
X344953Y339959D01*
X344695Y339908D01*
X344681Y339911D01*
X344681Y339826D01*
X344230Y340013D01*
X344230Y340014D01*
X343859Y340168D01*
X343870Y340176D01*
X343823Y340196D01*
X343690Y340516D01*
X343690Y340516D01*
X343541Y340877D01*
X343546Y340890D01*
X343541Y340888D01*
X343536Y340900D01*
X343680Y341246D01*
X343680Y341246D01*
X343821Y341585D01*
X343826Y341580D01*
X343835Y341601D01*
X344173Y341741D01*
X344172Y341742D01*
X344590Y341915D01*
X344599Y341911D01*
X344598Y341810D01*
X345439D01*
X345466Y342137D01*
X345471Y342150D01*
X345402Y342318D01*
X345402Y342319D01*
X345361Y342419D01*
X345288Y342449D01*
X345289Y342451D01*
X345094Y342532D01*
X345097Y342547D01*
X344860Y342645D01*
X344817Y342627D01*
X344820Y342657D01*
X344811Y342661D01*
X344615Y342580D01*
X344618Y342559D01*
X344460Y342493D01*
X344461Y342491D01*
X344298Y342424D01*
X344246Y342299D01*
X344248Y342297D01*
X344246Y342299D01*
X344246Y342299D01*
X343745Y342692D01*
X343814Y342859D01*
X344199Y343018D01*
X344199Y343018D01*
X344469Y343130D01*
X344474Y343102D01*
X344753Y343157D01*
X344790Y343150D01*
X344789Y343157D01*
X344834Y343166D01*
X345299Y343074D01*
D02*
G37*
G36*
X355153Y339989D02*
X354604D01*
X353954Y342160D01*
X353942D01*
X353294Y339989D01*
X352743D01*
X351752Y343092D01*
X352412D01*
X353007Y340919D01*
X353019D01*
X353722Y343092D01*
X354176D01*
X354878Y340919D01*
X354891D01*
X355485Y343092D01*
X356146D01*
X355153Y339989D01*
D02*
G37*
G36*
X337406Y346483D02*
D01*
D01*
D01*
D01*
D02*
G37*
G36*
X363312Y343040D02*
X363312Y343040D01*
X363791Y342841D01*
X363777Y342828D01*
X363829Y342806D01*
X364015Y342358D01*
X364015Y342358D01*
X364229Y341841D01*
X364219Y341817D01*
X364110Y341818D01*
Y341305D01*
X362105Y341306D01*
X362097Y341286D01*
X362228Y340969D01*
X362229Y340969D01*
X362336Y340710D01*
X362359Y340701D01*
X362355Y340697D01*
X362622Y340586D01*
X362622Y340585D01*
X362906Y340468D01*
X362918Y340472D01*
X362916Y340468D01*
X362922Y340465D01*
X363280Y340614D01*
X363280Y340613D01*
X363643Y340764D01*
X363653Y340786D01*
X363598Y340839D01*
X364107Y340404D01*
X364053Y340274D01*
X363833Y340183D01*
X363827Y340191D01*
X363531Y340068D01*
X363541Y340043D01*
X362933Y339922D01*
X362928Y339923D01*
X362928Y339832D01*
X362457Y340028D01*
X362453Y340015D01*
X362337Y340038D01*
X362002Y340262D01*
X361991Y340247D01*
X361848Y340307D01*
X361790Y340446D01*
X361784Y340442D01*
X361664Y340733D01*
X361650Y340728D01*
X361578Y341090D01*
X361576Y341090D01*
X361492Y341510D01*
X361496Y341528D01*
X361492Y341545D01*
X361572Y341948D01*
X361575Y341947D01*
X361645Y342299D01*
X361653Y342296D01*
X361772Y342583D01*
X361776Y342580D01*
X361860Y342783D01*
X361939Y342816D01*
X361960Y342790D01*
X362378Y343069D01*
X362379Y343070D01*
X362391Y343041D01*
X362833Y343225D01*
X362833Y343230D01*
X362843Y343234D01*
X363312Y343040D01*
D02*
G37*
G36*
X353825Y346483D02*
D01*
D01*
D01*
D01*
D02*
G37*
G36*
X355514Y348061D02*
X355512Y348051D01*
X355771Y347943D01*
X355771Y347943D01*
X355973Y347808D01*
X355992Y347835D01*
X356163Y347764D01*
X356181Y347721D01*
X356181Y347721D01*
X356385Y347228D01*
X356388Y347228D01*
X356449Y346919D01*
X356461Y346920D01*
X356543Y346511D01*
X356537Y346482D01*
X356539Y346483D01*
X356545Y346453D01*
X356463Y346037D01*
X356450Y346039D01*
X356387Y345727D01*
X356385Y345728D01*
X356181Y345234D01*
X356176Y345240D01*
X356154Y345187D01*
X355991Y345120D01*
X355972Y345145D01*
X355772Y345011D01*
X355771Y345013D01*
X355512Y344906D01*
X355508Y344923D01*
X355196Y344861D01*
X355182Y344864D01*
X355182Y344864D01*
X355167Y344861D01*
X354853Y344923D01*
X354849Y344906D01*
X354590Y345013D01*
X354589Y345012D01*
X354389Y345145D01*
X354370Y345120D01*
X354214Y345184D01*
X354190Y345242D01*
X354182Y345234D01*
X353977Y345728D01*
X353975Y345727D01*
X353913Y346039D01*
X353900Y346037D01*
X353817Y346453D01*
X353823Y346483D01*
X353825Y346483D01*
X353825Y346482D01*
X353903Y346483D01*
X353825Y346483D01*
X353820Y346511D01*
X353901Y346920D01*
X353913Y346919D01*
X353974Y347228D01*
X353977Y347228D01*
X354182Y347721D01*
X354184Y347719D01*
X354205Y347767D01*
X354369Y347836D01*
X354389Y347809D01*
X354589Y347943D01*
X354589Y347943D01*
X354849Y348051D01*
X354852Y348034D01*
X355167Y348097D01*
X355182Y348094D01*
X355181Y348186D01*
X355196Y348192D01*
X355514Y348061D01*
D02*
G37*
G36*
X339094Y348061D02*
X339092Y348051D01*
X339351Y347943D01*
X339351Y347943D01*
X339553Y347808D01*
X339572Y347835D01*
X339743Y347764D01*
X339761Y347721D01*
X339761Y347721D01*
X339966Y347228D01*
X339968Y347228D01*
X340029Y346919D01*
X340042Y346920D01*
X340123Y346511D01*
X340117Y346482D01*
X340119Y346483D01*
X340126Y346453D01*
X340043Y346037D01*
X340030Y346039D01*
X339968Y345727D01*
X339966Y345728D01*
X339761Y345234D01*
X339756Y345240D01*
X339734Y345187D01*
X339571Y345120D01*
X339553Y345145D01*
X339352Y345011D01*
X339351Y345013D01*
X339092Y344906D01*
X339088Y344923D01*
X338777Y344861D01*
X338762Y344864D01*
X338763Y344864D01*
X338747Y344860D01*
X338433Y344923D01*
X338429Y344906D01*
X338170Y345013D01*
X338169Y345012D01*
X337969Y345145D01*
X337950Y345120D01*
X337794Y345185D01*
X337770Y345242D01*
X337762Y345234D01*
X337557Y345728D01*
X337555Y345727D01*
X337493Y346039D01*
X337480Y346037D01*
X337397Y346453D01*
X337403Y346483D01*
X337406Y346483D01*
X337406Y346482D01*
X337483Y346483D01*
X337406Y346483D01*
X337400Y346511D01*
X337481Y346920D01*
X337493Y346919D01*
X337555Y347228D01*
X337557Y347228D01*
X337762Y347721D01*
X337765Y347719D01*
X337785Y347767D01*
X337949Y347836D01*
X337969Y347809D01*
X338170Y347943D01*
X338169Y347943D01*
X338429Y348051D01*
X338433Y348034D01*
X338747Y348097D01*
X338763Y348094D01*
X338761Y348186D01*
X338777Y348192D01*
X339094Y348061D01*
D02*
G37*
G36*
X352603Y348039D02*
X352602Y348039D01*
X352930Y347974D01*
X352932Y347979D01*
X352972Y347971D01*
X353448Y347653D01*
X353442Y347645D01*
X353056Y347190D01*
X352690Y347435D01*
X352689Y347435D01*
X352673Y347397D01*
X352245Y347575D01*
X352224Y347566D01*
X352226Y347555D01*
X352206Y347564D01*
X351969Y347466D01*
X351971Y347458D01*
X351798Y347386D01*
X351797Y347387D01*
X351774Y347378D01*
X351664Y347112D01*
X351668Y347103D01*
X351674Y347104D01*
X351714Y347006D01*
X351714Y347006D01*
X351758Y346900D01*
X351763Y346898D01*
X351766Y346900D01*
X351903Y346844D01*
X351903Y346841D01*
X352100Y346759D01*
X352103Y346811D01*
X352622Y346862D01*
X352846Y346769D01*
X352844Y346762D01*
X353030Y346684D01*
X353030Y346684D01*
X353298Y346573D01*
X353330Y346496D01*
X353337Y346501D01*
X353466Y346188D01*
X353467Y346188D01*
X353605Y345855D01*
X353601Y345845D01*
X353579Y345847D01*
X353587Y345829D01*
X353425Y345439D01*
X353427Y345438D01*
X353330Y345204D01*
X353149Y345129D01*
X353157Y345118D01*
X352731Y344942D01*
X352729Y344950D01*
X352248Y344855D01*
X352230Y344858D01*
X352231Y344857D01*
X352218Y344854D01*
X351490Y344999D01*
X351487Y344993D01*
X351485Y344993D01*
X350844Y345421D01*
X350865Y345444D01*
X351221Y345796D01*
X351750Y345577D01*
X351749Y345577D01*
X352267Y345362D01*
X352281Y345368D01*
X352279Y345392D01*
X352290Y345387D01*
X352526Y345485D01*
X352524Y345491D01*
X352721Y345573D01*
X352719Y345576D01*
X352817Y345616D01*
X352852Y345700D01*
X352851Y345701D01*
X352920Y345868D01*
X352917Y345876D01*
X352914Y345876D01*
X352916Y345881D01*
X352868Y345997D01*
X352868Y345997D01*
X352833Y346082D01*
X352803Y346095D01*
X352805Y346098D01*
X352679Y346150D01*
X352679Y346152D01*
X352515Y346220D01*
X352512Y346180D01*
X351958Y346165D01*
X351609Y346309D01*
X351610Y346309D01*
X351286Y346443D01*
X351296Y346455D01*
X351247Y346475D01*
X351132Y346753D01*
X351132Y346753D01*
X350991Y347093D01*
X350999Y347111D01*
X350997Y347108D01*
X350988Y347130D01*
X351151Y347524D01*
X351151Y347524D01*
X351260Y347788D01*
X351388Y347841D01*
X351380Y347851D01*
X351770Y348013D01*
X351771Y348011D01*
X352209Y348098D01*
X352225Y348094D01*
X352225Y348109D01*
X352238Y348112D01*
X352603Y348039D01*
D02*
G37*
G36*
X354006Y371437D02*
X354041Y371351D01*
X354038Y371350D01*
X354573Y368563D01*
X354608Y368477D01*
X354666Y368453D01*
X354666Y368453D01*
X357000Y367486D01*
X357057Y367463D01*
X357143Y367498D01*
X357141Y367501D01*
X359491Y369094D01*
X359576Y369129D01*
X359691Y369081D01*
X359682Y369073D01*
X361699Y367073D01*
X361700Y367073D01*
X361747Y366958D01*
X361712Y366872D01*
X361709Y366874D01*
X360116Y364525D01*
X360080Y364439D01*
X360104Y364382D01*
X360104Y364382D01*
X361071Y362048D01*
X361095Y361990D01*
X361181Y361955D01*
X361181Y361958D01*
X363969Y361423D01*
X364054Y361388D01*
X364102Y361273D01*
X364102Y361273D01*
X364090D01*
X364102Y358433D01*
X364102Y358432D01*
X364054Y358318D01*
X363969Y358282D01*
X363968Y358285D01*
X361181Y357751D01*
X361095Y357715D01*
X361071Y357658D01*
X361071Y357658D01*
X360104Y355323D01*
X360080Y355266D01*
X360116Y355180D01*
X360119Y355182D01*
X361712Y352833D01*
X361747Y352747D01*
X361700Y352632D01*
X361699Y352632D01*
X361691Y352641D01*
X359691Y350624D01*
X359576Y350576D01*
X359491Y350612D01*
X359492Y350614D01*
X357143Y352207D01*
X357057Y352243D01*
X357000Y352219D01*
X355931Y351776D01*
X355874Y351753D01*
X355759Y351800D01*
X355735Y351858D01*
X353767Y356678D01*
X353743Y356735D01*
X353791Y356849D01*
X353843Y356871D01*
X353860Y356833D01*
X354837Y357486D01*
X355563Y358572D01*
X355817Y359853D01*
X355563Y361133D01*
X354837Y362219D01*
X353751Y362945D01*
X352471Y363200D01*
X351190Y362945D01*
X350104Y362219D01*
X349379Y361133D01*
X349124Y359853D01*
X349379Y358572D01*
X350104Y357486D01*
X351081Y356833D01*
X351098Y356871D01*
X351150Y356849D01*
X351198Y356735D01*
X351174Y356678D01*
X349207Y351858D01*
X349183Y351800D01*
X349068Y351753D01*
X349010Y351776D01*
Y351776D01*
X347941Y352219D01*
X347884Y352243D01*
X347798Y352207D01*
X347800Y352205D01*
X345451Y350612D01*
X345365Y350576D01*
X345250Y350624D01*
X345259Y350633D01*
X343242Y352632D01*
X343242Y352632D01*
X343194Y352747D01*
X343230Y352833D01*
X343232Y352831D01*
X344825Y355180D01*
X344861Y355266D01*
X344837Y355323D01*
Y355323D01*
X343870Y357658D01*
X343846Y357715D01*
X343761Y357751D01*
X343760Y357747D01*
X340973Y358282D01*
X340887Y358318D01*
X340839Y358433D01*
X340852D01*
X340839Y361273D01*
X340887Y361388D01*
X340973Y361423D01*
X340973Y361420D01*
X343761Y361955D01*
X343846Y361990D01*
X343870Y362048D01*
X343870D01*
X344837Y364382D01*
X344861Y364439D01*
X344825Y364525D01*
X344823Y364524D01*
X343230Y366872D01*
X343194Y366958D01*
X343242Y367073D01*
X343242Y367073D01*
X343251Y367064D01*
X345250Y369081D01*
X345365Y369129D01*
X345451Y369094D01*
X345449Y369091D01*
X347798Y367498D01*
X347884Y367463D01*
X347941Y367486D01*
X347941D01*
X350276Y368453D01*
X350333Y368477D01*
X350369Y368563D01*
X350365Y368563D01*
X350900Y371351D01*
X350936Y371437D01*
X351050Y371484D01*
Y371472D01*
X353891Y371484D01*
X354006Y371437D01*
D02*
G37*
G36*
X342306Y348054D02*
X342305Y348050D01*
X342531Y347956D01*
X342531Y347957D01*
X342845Y347827D01*
X342902Y347690D01*
X342894Y347683D01*
X343063Y347277D01*
X343044Y347273D01*
X343106Y346964D01*
X343106Y346964D01*
X343165Y346514D01*
X343159Y346475D01*
X343159Y346476D01*
X343164Y346437D01*
X343105Y345990D01*
X343106Y345990D01*
X343044Y345681D01*
X343063Y345677D01*
X342895Y345272D01*
X342899Y345269D01*
X342840Y345127D01*
X342530Y344999D01*
X342530Y345000D01*
X342306Y344907D01*
X342307Y344902D01*
X342046Y344794D01*
X342038Y344798D01*
X342039Y344821D01*
X342023Y344814D01*
X341602Y344988D01*
X341600Y344985D01*
X341236Y345136D01*
Y345256D01*
X341152Y345171D01*
X341236Y345136D01*
Y342820D01*
X341221Y342782D01*
X341236Y342761D01*
Y342820D01*
X341270Y342902D01*
X341595Y343037D01*
X341595Y343036D01*
X342036Y343219D01*
X342057Y343210D01*
X342056Y343206D01*
X342411Y343059D01*
Y343059D01*
X342793Y342901D01*
X342777Y342882D01*
X342870Y342843D01*
X343005Y342516D01*
X343093Y342304D01*
X343102Y342305D01*
X343204Y342059D01*
X343201Y342052D01*
X343090Y342052D01*
Y339989D01*
X342466D01*
X342528Y341836D01*
X342534Y341851D01*
X342424Y342117D01*
X342423Y342117D01*
X342323Y342359D01*
X342323Y342359D01*
X342320Y342366D01*
X342094Y342460D01*
X342094Y342460D01*
X341862Y342556D01*
X341854Y342553D01*
X341855Y342555D01*
X341846Y342558D01*
X341609Y342460D01*
X341609Y342460D01*
X341382Y342366D01*
X341379Y342359D01*
X341379Y342359D01*
X341279Y342117D01*
X341278Y342117D01*
X341168Y341851D01*
X341174Y341836D01*
X341236Y341837D01*
Y339989D01*
X340612D01*
Y348031D01*
X341236D01*
X341190Y347746D01*
X341221Y347820D01*
X341599Y347977D01*
X341599Y347976D01*
X342027Y348153D01*
X342039Y348148D01*
X342038Y348158D01*
X342046Y348162D01*
X342306Y348054D01*
D02*
G37*
G36*
X348105Y348148D02*
X348103Y348145D01*
X348458Y347998D01*
Y347998D01*
X348841Y347839D01*
X348824Y347820D01*
X348918Y347782D01*
X349053Y347454D01*
X349141Y347242D01*
X349150Y347244D01*
X349252Y346997D01*
X349249Y346990D01*
X349137Y346991D01*
Y344928D01*
X348513D01*
X348576Y346774D01*
X348582Y346789D01*
X348471Y347056D01*
X348470Y347055D01*
X348370Y347297D01*
X348371Y347297D01*
X348368Y347305D01*
X348142Y347398D01*
X348142Y347398D01*
X347910Y347495D01*
X347902Y347491D01*
X347903Y347493D01*
X347894Y347496D01*
X347657Y347398D01*
X347657Y347398D01*
X347430Y347304D01*
X347427Y347297D01*
X347427Y347297D01*
X347327Y347055D01*
X347326Y347056D01*
X347215Y346789D01*
X347222Y346774D01*
X347284Y346775D01*
Y344928D01*
X346660D01*
Y348031D01*
X347284D01*
Y347758D01*
X347268Y347720D01*
X347284Y347699D01*
Y347758D01*
X347318Y347841D01*
X347643Y347975D01*
X347643Y347975D01*
X348083Y348157D01*
X348105Y348148D01*
D02*
G37*
G36*
X363652Y348181D02*
X363651Y348181D01*
X363658Y348184D01*
X363990Y348047D01*
X363989Y348043D01*
X364287Y347920D01*
X364287Y347921D01*
X364711Y347638D01*
X364778Y347538D01*
X364767Y347528D01*
X364334Y347140D01*
X364287Y347254D01*
X364019Y347365D01*
X364018Y347364D01*
X363681Y347503D01*
X363675Y347501D01*
X363677Y347512D01*
X363656Y347521D01*
X363322Y347382D01*
X363322Y347382D01*
X363071Y347278D01*
X363047Y347220D01*
X363044Y347222D01*
X362910Y346900D01*
X362916Y346899D01*
X362836Y346501D01*
X362842Y346475D01*
X362842Y346476D01*
X362837Y346450D01*
X362916Y346054D01*
X362911Y346052D01*
X363043Y345732D01*
X363046Y345734D01*
X363070Y345677D01*
X363322Y345573D01*
X363322Y345573D01*
X363656Y345434D01*
X363677Y345443D01*
X363675Y345455D01*
X363682Y345452D01*
X364020Y345592D01*
X364021Y345591D01*
X364282Y345699D01*
X364331Y345818D01*
X364307Y345840D01*
X364332Y345820D01*
X364331Y345818D01*
X364778Y345418D01*
X364711Y345318D01*
X364288Y345035D01*
X364287Y345037D01*
X363989Y344914D01*
X363990Y344910D01*
X363658Y344773D01*
X363652Y344776D01*
X363651Y344776D01*
X363652Y344776D01*
D01*
D01*
D01*
X363644Y344773D01*
X363139Y344982D01*
X363131Y344962D01*
X363089Y344970D01*
X362671Y345249D01*
X362646Y345219D01*
X362556Y345256D01*
X362472Y345460D01*
X362469Y345458D01*
X362351Y345744D01*
X362336Y345739D01*
X362268Y346079D01*
X362267Y346079D01*
X362191Y346462D01*
X362194Y346476D01*
X362194Y346475D01*
X362191Y346489D01*
X362267Y346872D01*
X362268Y346872D01*
X362336Y347213D01*
X362351Y347208D01*
X362469Y347495D01*
X362472Y347493D01*
X362559Y347701D01*
X362644Y347737D01*
X362671Y347706D01*
X363094Y347989D01*
X363130Y347996D01*
X363139Y347975D01*
X363644Y348184D01*
X363652Y348181D01*
D02*
G37*
G36*
X361658Y348148D02*
X361656Y348145D01*
X361657Y348145D01*
X361989Y348007D01*
X361989Y348007D01*
X362334Y347864D01*
X362305Y347827D01*
X361872Y347312D01*
X361649Y347404D01*
Y347404D01*
X361441Y347490D01*
X361441Y347495D01*
X361441Y347495D01*
X361003Y347313D01*
X361010Y347305D01*
X360966Y347287D01*
X360883Y347087D01*
X360883Y347088D01*
X360768Y346811D01*
X360777Y346791D01*
X360837Y346792D01*
Y344928D01*
X360213D01*
Y348031D01*
X360837D01*
Y347758D01*
X360821Y347720D01*
X360837Y347699D01*
Y347758D01*
X360871Y347841D01*
X361196Y347975D01*
X361196Y347975D01*
X361637Y348157D01*
X361658Y348148D01*
D02*
G37*
G36*
X366709Y347978D02*
X366709Y347978D01*
X367187Y347780D01*
X367173Y347766D01*
X367225Y347744D01*
X367411Y347296D01*
X367411Y347296D01*
X367625Y346779D01*
X367615Y346755D01*
X367507Y346757D01*
Y346243D01*
X365502Y346245D01*
X365493Y346224D01*
X365624Y345907D01*
X365625Y345908D01*
X365733Y345648D01*
X365755Y345639D01*
X365751Y345635D01*
X366019Y345524D01*
X366019Y345524D01*
X366302Y345406D01*
X366314Y345411D01*
X366313Y345406D01*
X366319Y345404D01*
X366676Y345552D01*
X366677Y345551D01*
X367040Y345702D01*
X367049Y345724D01*
X366995Y345777D01*
X367504Y345343D01*
X367450Y345213D01*
X367230Y345122D01*
X367224Y345129D01*
X366927Y345006D01*
X366937Y344981D01*
X366329Y344860D01*
X366325Y344861D01*
X366325Y344771D01*
X365853Y344966D01*
X365849Y344954D01*
X365733Y344977D01*
X365398Y345201D01*
X365388Y345186D01*
X365244Y345245D01*
X365186Y345385D01*
X365181Y345381D01*
X365060Y345671D01*
X365047Y345667D01*
X364975Y346028D01*
X364972Y346028D01*
X364889Y346448D01*
X364892Y346467D01*
X364892Y346467D01*
X364889Y346483D01*
X364969Y346886D01*
X364972Y346886D01*
X365042Y347237D01*
X365050Y347235D01*
X365168Y347521D01*
X365172Y347519D01*
X365256Y347721D01*
X365335Y347754D01*
X365357Y347729D01*
X365775Y348008D01*
X365776Y348008D01*
X365788Y347980D01*
X366230Y348163D01*
X366229Y348168D01*
X366240Y348172D01*
X366709Y347978D01*
D02*
G37*
G36*
X345316D02*
X345316Y347978D01*
X345795Y347780D01*
X345781Y347766D01*
X345833Y347744D01*
X346019Y347296D01*
X346019Y347296D01*
X346233Y346779D01*
X346223Y346755D01*
X346114Y346757D01*
Y346243D01*
X344109Y346245D01*
X344101Y346224D01*
X344232Y345907D01*
X344233Y345908D01*
X344340Y345648D01*
X344363Y345639D01*
X344359Y345635D01*
X344626Y345524D01*
X344626Y345524D01*
X344910Y345406D01*
X344922Y345411D01*
X344920Y345406D01*
X344926Y345404D01*
X345284Y345552D01*
X345284Y345551D01*
X345648Y345702D01*
X345657Y345724D01*
X345602Y345777D01*
X346111Y345343D01*
X346057Y345213D01*
X345837Y345122D01*
X345831Y345129D01*
X345535Y345006D01*
X345545Y344981D01*
X344937Y344860D01*
X344932Y344861D01*
Y344771D01*
X344461Y344966D01*
X344457Y344954D01*
X344341Y344977D01*
X344006Y345201D01*
X343996Y345186D01*
X343852Y345245D01*
X343794Y345385D01*
X343788Y345381D01*
X343668Y345671D01*
X343654Y345667D01*
X343582Y346028D01*
X343580Y346028D01*
X343496Y346449D01*
X343500Y346467D01*
X343500Y346467D01*
X343496Y346483D01*
X343577Y346886D01*
X343579Y346886D01*
X343649Y347237D01*
X343657Y347235D01*
X343776Y347521D01*
X343780Y347519D01*
X343864Y347721D01*
X343943Y347754D01*
X343964Y347729D01*
X344382Y348008D01*
X344384Y348008D01*
X344395Y347980D01*
X344837Y348163D01*
X344837Y348168D01*
X344847Y348172D01*
X345316Y347978D01*
D02*
G37*
%LPC*%
G36*
X358881Y345256D02*
Y345200D01*
X358895Y345235D01*
X358881Y345256D01*
D02*
G37*
G36*
X362825Y342596D02*
X362579Y342494D01*
X362579Y342493D01*
X362342Y342395D01*
X362338Y342387D01*
X362338Y342387D01*
X362230Y342128D01*
X362229Y342128D01*
X362102Y341819D01*
X362178Y341818D01*
X363560Y341820D01*
X363433Y342128D01*
X363432Y342128D01*
X363324Y342387D01*
X363324Y342386D01*
X363319Y342396D01*
X363085Y342493D01*
X363085Y342494D01*
X362841Y342594D01*
X362833Y342591D01*
X362834Y342592D01*
X362825Y342596D01*
D02*
G37*
G36*
X350131Y342583D02*
X349939Y342503D01*
X349940Y342495D01*
X349786Y342431D01*
X349786Y342431D01*
X349685Y342389D01*
X349608Y342203D01*
X349604Y342204D01*
X349477Y341566D01*
X349481Y341544D01*
X349476Y341519D01*
X349604Y340875D01*
X349608Y340876D01*
X349685Y340690D01*
X349786Y340648D01*
X349786Y340647D01*
X349940Y340583D01*
X349939Y340576D01*
X350131Y340496D01*
X350142Y340500D01*
X350140Y340505D01*
X350150Y340501D01*
X350340Y340580D01*
X350339Y340586D01*
X350491Y340649D01*
X350491Y340649D01*
X350585Y340688D01*
X350668Y340888D01*
X350670Y340887D01*
X350799Y341535D01*
X350798Y341544D01*
X350798Y341544D01*
X350799Y341548D01*
X350671Y342192D01*
X350668Y342191D01*
X350585Y342390D01*
X350491Y342429D01*
X350491Y342430D01*
X350339Y342493D01*
X350340Y342499D01*
X350150Y342578D01*
X350142Y342574D01*
X350142Y342579D01*
X350131Y342583D01*
D02*
G37*
G36*
X355165Y347501D02*
X354885Y347385D01*
X354885Y347385D01*
X354709Y347313D01*
X354671Y347221D01*
X354663Y347227D01*
X354550Y346954D01*
X354537Y346956D01*
X354460Y346769D01*
X354496Y346768D01*
X354444Y346504D01*
X354448Y346482D01*
X354444Y346483D01*
X354439Y346460D01*
X354493Y346189D01*
X354457Y346188D01*
X354536Y345997D01*
X354550Y346000D01*
X354663Y345728D01*
X354671Y345735D01*
X354709Y345643D01*
X354885Y345570D01*
X354885Y345570D01*
X355165Y345454D01*
X355182Y345461D01*
X355181Y345462D01*
X355183Y345462D01*
X355182Y345461D01*
X355198Y345454D01*
X355477Y345570D01*
X355477Y345570D01*
X355658Y345645D01*
X355695Y345733D01*
X355700Y345730D01*
X355812Y345999D01*
X355821Y345997D01*
X355898Y346184D01*
X355864Y346186D01*
X355918Y346454D01*
X355913Y346475D01*
X355914D01*
X355918Y346497D01*
X355865Y346766D01*
X355899Y346768D01*
X355821Y346956D01*
X355812Y346954D01*
X355700Y347225D01*
X355695Y347222D01*
X355658Y347311D01*
X355477Y347386D01*
X355477Y347385D01*
X355198Y347501D01*
X355182Y347494D01*
X355183Y347494D01*
X355181Y347494D01*
X355182Y347494D01*
X355165Y347501D01*
D02*
G37*
G36*
X338745Y347501D02*
X338465Y347385D01*
X338465Y347385D01*
X338289Y347313D01*
X338251Y347221D01*
X338243Y347227D01*
X338130Y346954D01*
X338117Y346956D01*
X338040Y346769D01*
X338076Y346768D01*
X338024Y346504D01*
X338028Y346482D01*
X338024Y346483D01*
X338019Y346460D01*
X338073Y346189D01*
X338037Y346188D01*
X338116Y345997D01*
X338130Y346000D01*
X338243Y345728D01*
X338251Y345735D01*
X338289Y345643D01*
X338465Y345570D01*
X338465Y345570D01*
X338745Y345454D01*
X338763Y345461D01*
X338779Y345454D01*
X339057Y345570D01*
X339057Y345570D01*
X339238Y345645D01*
X339275Y345733D01*
X339280Y345730D01*
X339392Y345999D01*
X339401Y345997D01*
X339478Y346184D01*
X339444Y346186D01*
X339498Y346453D01*
X339493Y346475D01*
X339494D01*
X339498Y346498D01*
X339445Y346766D01*
X339479Y346768D01*
X339401Y346956D01*
X339392Y346954D01*
X339280Y347225D01*
X339275Y347222D01*
X339238Y347311D01*
X339057Y347386D01*
X339057Y347385D01*
X338779Y347501D01*
X338763Y347494D01*
X338745Y347501D01*
D02*
G37*
G36*
X341858Y347520D02*
X341848Y347516D01*
X341850Y347513D01*
X341839Y347517D01*
X341648Y347438D01*
X341650Y347432D01*
X341496Y347368D01*
X341496Y347367D01*
X341401Y347328D01*
X341319Y347129D01*
X341317Y347130D01*
X341188Y346483D01*
X341190Y346475D01*
X341190Y346476D01*
X341189Y346468D01*
X341317Y345824D01*
X341319Y345825D01*
X341401Y345627D01*
X341496Y345588D01*
X341496Y345587D01*
X341649Y345523D01*
X341648Y345517D01*
X341839Y345438D01*
X341848Y345442D01*
X341848Y345439D01*
X341858Y345435D01*
X342051Y345514D01*
X342049Y345522D01*
X342203Y345585D01*
X342202Y345586D01*
X342303Y345628D01*
X342380Y345814D01*
X342384Y345813D01*
X342512Y346453D01*
X342507Y346476D01*
X342508Y346475D01*
X342512Y346497D01*
X342384Y347140D01*
X342381Y347139D01*
X342303Y347327D01*
X342202Y347369D01*
X342203Y347369D01*
X342049Y347433D01*
X342051Y347440D01*
X341858Y347520D01*
D02*
G37*
G36*
X344710Y341376D02*
X344476Y341279D01*
X344478Y341273D01*
X344308Y341203D01*
X344310Y341200D01*
X344258Y341178D01*
X344216Y341078D01*
X344217Y341078D01*
X344157Y340934D01*
X344164Y340918D01*
X344161Y340919D01*
X344161Y340917D01*
X344220Y340774D01*
X344219Y340773D01*
X344269Y340654D01*
X344312Y340636D01*
X344308Y340631D01*
X344496Y340553D01*
X344495Y340548D01*
X344740Y340447D01*
X344759Y340455D01*
X344757Y340502D01*
X344809Y340492D01*
X345083Y340546D01*
X345086Y340528D01*
X345298Y340616D01*
X345299Y340616D01*
X345341Y340634D01*
X345362Y340683D01*
X345364Y340681D01*
X345405Y340781D01*
X345410Y340779D01*
X345518Y341042D01*
X345507Y341070D01*
X345439Y341068D01*
Y341296D01*
X344710Y341376D01*
D02*
G37*
G36*
X366222Y347534D02*
X365975Y347432D01*
X365975Y347432D01*
X365738Y347333D01*
X365734Y347325D01*
X365734Y347325D01*
X365627Y347066D01*
X365626Y347066D01*
X365498Y346758D01*
X365574Y346757D01*
X366957Y346758D01*
X366829Y347066D01*
X366828Y347066D01*
X366721Y347325D01*
X366720Y347325D01*
X366716Y347335D01*
X366481Y347432D01*
X366481Y347432D01*
X366238Y347533D01*
X366229Y347529D01*
X366231Y347530D01*
X366222Y347534D01*
D02*
G37*
G36*
X361496Y341529D02*
X361496Y341528D01*
X361496Y341528D01*
X361496Y341529D01*
D02*
G37*
G36*
X357356Y341376D02*
X357122Y341279D01*
X357123Y341273D01*
X356954Y341203D01*
X356956Y341200D01*
X356903Y341178D01*
X356862Y341078D01*
X356862Y341078D01*
X356802Y340934D01*
X356809Y340918D01*
X356807Y340919D01*
X356806Y340917D01*
X356866Y340774D01*
X356865Y340773D01*
X356914Y340654D01*
X356958Y340636D01*
X356953Y340631D01*
X357142Y340553D01*
X357141Y340548D01*
X357385Y340447D01*
X357405Y340455D01*
X357402Y340502D01*
X357454Y340492D01*
X357729Y340546D01*
X357731Y340528D01*
X357944Y340616D01*
X357944Y340616D01*
X357987Y340634D01*
X358007Y340683D01*
X358009Y340681D01*
X358050Y340781D01*
X358055Y340779D01*
X358164Y341042D01*
X358153Y341070D01*
X358085Y341068D01*
Y341296D01*
X357356Y341376D01*
D02*
G37*
G36*
X344829Y347534D02*
X344583Y347432D01*
X344583Y347432D01*
X344346Y347333D01*
X344342Y347325D01*
X344342Y347325D01*
X344234Y347066D01*
X344234Y347066D01*
X344106Y346758D01*
X344182Y346757D01*
X345564Y346758D01*
X345437Y347066D01*
X345436Y347066D01*
X345328Y347326D01*
X345327Y347324D01*
X345323Y347335D01*
X345089Y347432D01*
X345089Y347432D01*
X344845Y347533D01*
X344837Y347529D01*
X344838Y347530D01*
X344829Y347534D01*
D02*
G37*
%LPD*%
G36*
X349481Y341544D02*
Y341544D01*
X349481Y341545D01*
X349481Y341544D01*
D02*
G37*
G36*
X339493Y346475D02*
X339418Y346475D01*
X339493Y346476D01*
X339493Y346475D01*
D02*
G37*
G36*
X355913D02*
X355838Y346475D01*
X355913Y346476D01*
X355913Y346475D01*
D02*
G37*
G36*
X338764Y347494D02*
X338761Y347494D01*
X338763Y347494D01*
X338764Y347494D01*
D02*
G37*
G36*
X350141Y342504D02*
X350140Y342573D01*
X350142Y342574D01*
X350141Y342504D01*
D02*
G37*
G36*
X341850Y345442D02*
X341848Y345442D01*
X341849Y345513D01*
X341850Y345442D01*
D02*
G37*
G36*
X338764Y345462D02*
X338763Y345461D01*
X338761Y345462D01*
X338764Y345462D01*
D02*
G37*
D19*
X270000Y530000D02*
Y545235D01*
X275078Y540157D01*
X280157Y545235D01*
Y530000D01*
X292853D02*
X287774D01*
X285235Y532539D01*
Y537617D01*
X287774Y540157D01*
X292853D01*
X295392Y537617D01*
Y535078D01*
X285235D01*
X300470Y530000D02*
X305548D01*
X303009D01*
Y545235D01*
X300470D01*
X315705Y540157D02*
X320784D01*
X323323Y537617D01*
Y530000D01*
X315705D01*
X313166Y532539D01*
X315705Y535078D01*
X323323D01*
X328401Y530000D02*
Y540157D01*
X336019D01*
X338558Y537617D01*
Y530000D01*
X343636D02*
X351254D01*
X353793Y532539D01*
X351254Y535078D01*
X346175D01*
X343636Y537617D01*
X346175Y540157D01*
X353793D01*
X361410Y530000D02*
X366489D01*
X369028Y532539D01*
Y537617D01*
X366489Y540157D01*
X361410D01*
X358871Y537617D01*
Y532539D01*
X361410Y530000D01*
X374106D02*
Y540157D01*
X381724D01*
X384263Y537617D01*
Y530000D01*
X404576Y545235D02*
X414733D01*
X409655D01*
Y530000D01*
X427429D02*
X422351D01*
X419812Y532539D01*
Y537617D01*
X422351Y540157D01*
X427429D01*
X429968Y537617D01*
Y535078D01*
X419812D01*
X445203Y540157D02*
X437586D01*
X435047Y537617D01*
Y532539D01*
X437586Y530000D01*
X445203D01*
X450282Y545235D02*
Y530000D01*
Y537617D01*
X452821Y540157D01*
X457899D01*
X460438Y537617D01*
Y530000D01*
X290157Y525235D02*
X285078D01*
X287617D01*
Y512539D01*
X285078Y510000D01*
X282539D01*
X280000Y512539D01*
X302853Y510000D02*
X297774D01*
X295235Y512539D01*
Y517617D01*
X297774Y520157D01*
X302853D01*
X305392Y517617D01*
Y515078D01*
X295235D01*
X310470Y510000D02*
X315548D01*
X313009D01*
Y525235D01*
X310470D01*
X323166Y510000D02*
X328244D01*
X325705D01*
Y525235D01*
X323166D01*
X335862Y520157D02*
Y512539D01*
X338401Y510000D01*
X346019D01*
Y507461D01*
X343479Y504922D01*
X340940D01*
X346019Y510000D02*
Y520157D01*
X351097Y525235D02*
Y510000D01*
X358714D01*
X361254Y512539D01*
Y515078D01*
X358714Y517617D01*
X351097D01*
X358714D01*
X361254Y520157D01*
Y522696D01*
X358714Y525235D01*
X351097D01*
X373950Y510000D02*
X368871D01*
X366332Y512539D01*
Y517617D01*
X368871Y520157D01*
X373950D01*
X376489Y517617D01*
Y515078D01*
X366332D01*
X384106Y520157D02*
X389185D01*
X391724Y517617D01*
Y510000D01*
X384106D01*
X381567Y512539D01*
X384106Y515078D01*
X391724D01*
X396802Y510000D02*
Y520157D01*
X404420D01*
X406959Y517617D01*
Y510000D01*
D20*
X260000Y250000D02*
X600000D01*
Y550000D01*
X260000D02*
X600000D01*
X260000Y250000D02*
Y550000D01*
D24*
X502440Y372210D02*
G03*
X502440Y372210I-1250J0D01*
G01*
D25*
X353843Y356871D02*
G03*
X351098Y356871I-1372J2982D01*
G01*
X351174Y356678D02*
G03*
X351098Y356871I-139J57D01*
G01*
X349010Y351776D02*
G03*
X349207Y351858I57J139D01*
G01*
X347941Y352219D02*
G03*
X347800Y352205I-57J-139D01*
G01*
X343232Y352831D02*
G03*
X343251Y352641I124J-84D01*
G01*
X344823Y355182D02*
G03*
X344837Y355323I-124J84D01*
G01*
X343870Y357658D02*
G03*
X343760Y357747I-139J-57D01*
G01*
X340852Y358433D02*
G03*
X340973Y358285I150J0D01*
G01*
Y361420D02*
G03*
X340852Y361273I28J-147D01*
G01*
X343760Y361958D02*
G03*
X343870Y362048I-28J147D01*
G01*
X344837Y364382D02*
G03*
X344823Y364524I-139J57D01*
G01*
X343251Y367064D02*
G03*
X343232Y366874I106J-106D01*
G01*
X345449Y369091D02*
G03*
X345259Y369073I-84J-124D01*
G01*
X347800Y367501D02*
G03*
X347941Y367486I84J124D01*
G01*
X350276Y368453D02*
G03*
X350365Y368563I-57J139D01*
G01*
X351050Y371472D02*
G03*
X350903Y371350I0J-150D01*
G01*
X354038D02*
G03*
X353891Y371472I-147J-28D01*
G01*
X354576Y368563D02*
G03*
X354666Y368453I147J28D01*
G01*
X357000Y367486D02*
G03*
X357141Y367501I57J139D01*
G01*
X359682Y369073D02*
G03*
X359492Y369091I-106J-106D01*
G01*
X361709Y366874D02*
G03*
X361691Y367064I-124J84D01*
G01*
X360119Y364524D02*
G03*
X360104Y364382I124J-84D01*
G01*
X361071Y362048D02*
G03*
X361181Y361958I139J57D01*
G01*
X364090Y361273D02*
G03*
X363968Y361420I-150J0D01*
G01*
Y358285D02*
G03*
X364090Y358433I-28J147D01*
G01*
X361181Y357747D02*
G03*
X361071Y357658I28J-147D01*
G01*
X360104Y355323D02*
G03*
X360119Y355182I139J-57D01*
G01*
X361691Y352641D02*
G03*
X361709Y352831I-106J106D01*
G01*
X357141Y352205D02*
G03*
X357000Y352219I-84J-124D01*
G01*
X355735Y351858D02*
G03*
X355931Y351776I139J57D01*
G01*
X353843Y356871D02*
G03*
X353767Y356678I63J-136D01*
G01*
X345259Y350633D02*
G03*
X345449Y350614I106J106D01*
G01*
X359492D02*
G03*
X359682Y350633I84J124D01*
G01*
X349207Y351858D02*
X351174Y356678D01*
X347941Y352219D02*
X349010Y351776D01*
X345449Y350614D02*
X347800Y352205D01*
X343251Y352641D02*
X345259Y350633D01*
X343232Y352831D02*
X344823Y355182D01*
X343870Y357658D02*
X344837Y355323D01*
X340973Y358285D02*
X343760Y357747D01*
X340852Y358433D02*
Y361273D01*
X340973Y361420D02*
X343760Y361958D01*
X343870Y362048D02*
X344837Y364382D01*
X343232Y366874D02*
X344823Y364524D01*
X343251Y367064D02*
X345259Y369073D01*
X345449Y369091D02*
X347800Y367501D01*
X347941Y367486D02*
X350276Y368453D01*
X350365Y368563D02*
X350903Y371350D01*
X351050Y371472D02*
X353891D01*
X354038Y371350D02*
X354576Y368563D01*
X354666Y368453D02*
X357000Y367486D01*
X357141Y367501D02*
X359492Y369091D01*
X359682Y369073D02*
X361691Y367064D01*
X360119Y364524D02*
X361709Y366874D01*
X360104Y364382D02*
X361071Y362048D01*
X361181Y361958D02*
X363968Y361420D01*
X364090Y358433D02*
Y361273D01*
X361181Y357747D02*
X363968Y358285D01*
X360104Y355323D02*
X361071Y357658D01*
X360119Y355182D02*
X361709Y352831D01*
X359682Y350633D02*
X361691Y352641D01*
X357141Y352205D02*
X359492Y350614D01*
X355931Y351776D02*
X357000Y352219D01*
X353767Y356678D02*
X355735Y351858D01*
D26*
X571324Y512076D02*
Y518076D01*
X563212D02*
X571324D01*
Y489852D02*
Y495948D01*
X563212Y489852D02*
X571324D01*
X572876Y459376D02*
X578876D01*
Y467488D01*
X550652Y459376D02*
X556748D01*
X550652D02*
Y467488D01*
X354024Y425576D02*
Y431576D01*
X345912D02*
X354024D01*
Y403352D02*
Y409448D01*
X345912Y403352D02*
X354024D01*
X513476Y335924D02*
Y341924D01*
Y335924D02*
X521588D01*
X513476Y358052D02*
Y364148D01*
X521588D01*
D27*
X571500Y523500D02*
X577500D01*
Y541500D01*
X571500D02*
X577500D01*
X547500Y523500D02*
X553500D01*
X547500D02*
Y541500D01*
X553500D01*
X574000Y426000D02*
X580000D01*
Y444000D01*
X574000D02*
X580000D01*
X550000Y426000D02*
X556000D01*
X550000D02*
Y444000D01*
X556000D01*
X454720Y494710D02*
Y500710D01*
Y494710D02*
X472720D01*
Y500710D01*
X454720Y518710D02*
Y524710D01*
X472720D01*
Y518710D02*
Y524710D01*
X356500Y438500D02*
X362500D01*
Y456500D01*
X356500D02*
X362500D01*
X332500Y438500D02*
X338500D01*
X332500D02*
Y456500D01*
X338500D01*
X493040Y518710D02*
Y524710D01*
X475040D02*
X493040D01*
X475040Y518710D02*
Y524710D01*
X493040Y494710D02*
Y500710D01*
X475040Y494710D02*
X493040D01*
X475040D02*
Y500710D01*
X451500Y519000D02*
Y525000D01*
X433500D02*
X451500D01*
X433500Y519000D02*
Y525000D01*
X451500Y495000D02*
Y501000D01*
X433500Y495000D02*
X451500D01*
X433500D02*
Y501000D01*
X332500Y476500D02*
X338500D01*
X332500Y458500D02*
Y476500D01*
Y458500D02*
X338500D01*
X356500Y476500D02*
X362500D01*
Y458500D02*
Y476500D01*
X356500Y458500D02*
X362500D01*
X495000Y494750D02*
Y500750D01*
Y494750D02*
X513000D01*
Y500750D01*
X495000Y518750D02*
Y524750D01*
X513000D01*
Y518750D02*
Y524750D01*
X441000Y324000D02*
Y346000D01*
X434000D02*
X441000D01*
X434000Y324000D02*
X441000D01*
X399000Y346000D02*
X406000D01*
X399000Y324000D02*
X406000D01*
X399000D02*
Y346000D01*
X426500Y436000D02*
X432500D01*
Y454000D01*
X426500D02*
X432500D01*
X402500Y436000D02*
X408500D01*
X402500D02*
Y454000D01*
X408500D01*
X309000Y446500D02*
Y452500D01*
X291000D02*
X309000D01*
X291000Y446500D02*
Y452500D01*
X309000Y422500D02*
Y428500D01*
X291000Y422500D02*
X309000D01*
X291000D02*
Y428500D01*
X309000Y409000D02*
Y415000D01*
X291000D02*
X309000D01*
X291000Y409000D02*
Y415000D01*
X309000Y385000D02*
Y391000D01*
X291000Y385000D02*
X309000D01*
X291000D02*
Y391000D01*
X309000Y371500D02*
Y377500D01*
X291000D02*
X309000D01*
X291000Y371500D02*
Y377500D01*
X309000Y347500D02*
Y353500D01*
X291000Y347500D02*
X309000D01*
X291000D02*
Y353500D01*
X478500Y335000D02*
Y341000D01*
Y335000D02*
X496500D01*
Y341000D01*
X478500Y359000D02*
Y365000D01*
X496500D01*
Y359000D02*
Y365000D01*
X541000Y382500D02*
Y388500D01*
Y382500D02*
X559000D01*
Y388500D01*
X541000Y406500D02*
Y412500D01*
X559000D01*
Y406500D02*
Y412500D01*
X288330Y295670D02*
X310330D01*
Y302670D01*
X288330Y295670D02*
Y302670D01*
X310330Y330670D02*
Y337670D01*
X288330Y330670D02*
Y337670D01*
X310330D01*
X536500Y406500D02*
Y412500D01*
X518500D02*
X536500D01*
X518500Y406500D02*
Y412500D01*
X536500Y382500D02*
Y388500D01*
X518500Y382500D02*
X536500D01*
X518500D02*
Y388500D01*
D28*
X455846Y491890D02*
X491914D01*
X455846Y471570D02*
X491914D01*
X455846D02*
Y491890D01*
X491914Y471570D02*
Y491890D01*
X583650Y376666D02*
Y412734D01*
X563330Y376666D02*
Y412734D01*
X583650D01*
X563330Y376666D02*
X583650D01*
X457890Y462460D02*
X491290D01*
X457890Y374960D02*
Y462460D01*
X491290Y374960D02*
Y462460D01*
X457890Y374960D02*
X491290D01*
X432870Y374876D02*
Y410944D01*
X412550Y374876D02*
Y410944D01*
X432870D01*
X412550Y374876D02*
X432870D01*
D29*
X341630Y259990D02*
Y313990D01*
Y259990D02*
X544330D01*
X341630Y313990D02*
X544330D01*
Y259990D02*
Y313990D01*
M02*
