G04*
G04 #@! TF.GenerationSoftware,Altium Limited,CircuitStudio,1.5.2 (1.5.2.30)*
G04*
G04 Layer_Color=16764230*
%FSLAX44Y44*%
%MOMM*%
G71*
G01*
G75*
%ADD19C,0.2540*%
%ADD20C,0.5000*%
D19*
X567500Y532500D02*
G03*
X567500Y532500I-5000J0D01*
G01*
X570000Y435000D02*
G03*
X570000Y435000I-5000J0D01*
G01*
X468720Y509710D02*
G03*
X468720Y509710I-5000J0D01*
G01*
X352500Y447500D02*
G03*
X352500Y447500I-5000J0D01*
G01*
X489040Y509710D02*
G03*
X489040Y509710I-5000J0D01*
G01*
X447500Y510000D02*
G03*
X447500Y510000I-5000J0D01*
G01*
X352500Y467500D02*
G03*
X352500Y467500I-5000J0D01*
G01*
X509000Y509750D02*
G03*
X509000Y509750I-5000J0D01*
G01*
X422500Y445000D02*
G03*
X422500Y445000I-5000J0D01*
G01*
X305000Y437500D02*
G03*
X305000Y437500I-5000J0D01*
G01*
Y400000D02*
G03*
X305000Y400000I-5000J0D01*
G01*
Y362500D02*
G03*
X305000Y362500I-5000J0D01*
G01*
X492500Y350000D02*
G03*
X492500Y350000I-5000J0D01*
G01*
X555000Y397500D02*
G03*
X555000Y397500I-5000J0D01*
G01*
X532500D02*
G03*
X532500Y397500I-5000J0D01*
G01*
X562500Y527500D02*
Y537500D01*
X557500Y532500D02*
X567500D01*
X565000Y430000D02*
Y440000D01*
X560000Y435000D02*
X570000D01*
X458720Y509710D02*
X468720D01*
X463720Y504710D02*
Y514710D01*
X347500Y442500D02*
Y452500D01*
X342500Y447500D02*
X352500D01*
X479040Y509710D02*
X489040D01*
X484040Y504710D02*
Y514710D01*
X437500Y510000D02*
X447500D01*
X442500Y505000D02*
Y515000D01*
X347500Y462500D02*
Y472500D01*
X342500Y467500D02*
X352500D01*
X499000Y509750D02*
X509000D01*
X504000Y504750D02*
Y514750D01*
X417500Y440000D02*
Y450000D01*
X412500Y445000D02*
X422500D01*
X295000Y437500D02*
X305000D01*
X300000Y432500D02*
Y442500D01*
X295000Y400000D02*
X305000D01*
X300000Y395000D02*
Y405000D01*
X295000Y362500D02*
X305000D01*
X300000Y357500D02*
Y367500D01*
X482500Y350000D02*
X492500D01*
X487500Y345000D02*
Y355000D01*
X545000Y397500D02*
X555000D01*
X550000Y392500D02*
Y402500D01*
X522500Y397500D02*
X532500D01*
X527500Y392500D02*
Y402500D01*
D20*
X260000Y250000D02*
X600000D01*
Y550000D01*
X260000D02*
X600000D01*
X260000Y250000D02*
Y550000D01*
M02*
