G04*
G04 #@! TF.GenerationSoftware,Altium Limited,CircuitStudio,1.5.2 (1.5.2.30)*
G04*
G04 Layer_Physical_Order=1*
G04 Layer_Color=11767835*
%FSLAX44Y44*%
%MOMM*%
G71*
G01*
G75*
%ADD10R,0.9144X0.8128*%
%ADD11R,0.8128X0.9144*%
%ADD12R,0.7000X1.3000*%
%ADD13R,1.3000X0.7000*%
%ADD14R,1.3000X1.6000*%
%ADD15R,0.9000X1.6000*%
%ADD16R,1.6000X1.3000*%
%ADD17R,1.6000X0.9000*%
%ADD18R,1.1800X0.5800*%
%ADD19C,0.2540*%
%ADD20C,0.5000*%
%ADD21C,1.5240*%
%ADD22R,1.5240X1.5240*%
%ADD23C,0.6000*%
G36*
X590000Y539102D02*
Y260000D01*
X480000Y260000D01*
X440000Y300000D01*
Y324460D01*
X441540D01*
Y329861D01*
X447872D01*
X450791Y326941D01*
Y309853D01*
X448684Y308236D01*
X447055Y306114D01*
X446031Y303642D01*
X445682Y300990D01*
X446031Y298338D01*
X447055Y295866D01*
X448684Y293744D01*
X450806Y292115D01*
X453278Y291091D01*
X455930Y290742D01*
X458582Y291091D01*
X461054Y292115D01*
X463176Y293744D01*
X464805Y295866D01*
X465829Y298338D01*
X466178Y300990D01*
X465829Y303642D01*
X464805Y306114D01*
X463176Y308236D01*
X461069Y309853D01*
Y314060D01*
X461975Y314453D01*
X462339Y314488D01*
X471945Y304881D01*
X471432Y303642D01*
X471082Y300990D01*
X471432Y298338D01*
X472455Y295866D01*
X474084Y293744D01*
X476206Y292115D01*
X478678Y291091D01*
X481330Y290742D01*
X483982Y291091D01*
X486454Y292115D01*
X488576Y293744D01*
X490205Y295866D01*
X491228Y298338D01*
X491578Y300990D01*
X491228Y303642D01*
X490205Y306114D01*
X488576Y308236D01*
X486454Y309865D01*
X483982Y310889D01*
X481330Y311238D01*
X478678Y310889D01*
X477439Y310375D01*
X468885Y318929D01*
Y334894D01*
X470154Y335573D01*
X471338Y334781D01*
X473500Y334352D01*
X475662Y334781D01*
X477190Y335803D01*
X478228Y335424D01*
X478460Y335240D01*
Y334460D01*
X496540D01*
Y346540D01*
X478460D01*
Y344385D01*
X476910D01*
X475662Y345219D01*
X473500Y345649D01*
X471338Y345219D01*
X470154Y344428D01*
X468885Y345106D01*
Y368391D01*
X477345Y376852D01*
X478615Y376326D01*
Y375000D01*
X478911Y373513D01*
X479753Y372253D01*
X483615Y368391D01*
Y365540D01*
X478460D01*
Y353460D01*
X496540D01*
Y365540D01*
X491385D01*
Y370000D01*
X491089Y371487D01*
X490247Y372747D01*
X487538Y375455D01*
X488064Y376725D01*
X492750D01*
Y375170D01*
X497305D01*
Y371310D01*
X497601Y369823D01*
X498443Y368563D01*
X505527Y361479D01*
Y356528D01*
X502300D01*
Y343320D01*
X516524D01*
Y356528D01*
X513297D01*
Y363088D01*
X513001Y364575D01*
X512159Y365835D01*
X505075Y372919D01*
Y375170D01*
X509630D01*
Y386050D01*
X492750D01*
Y384495D01*
X486385D01*
Y385933D01*
X486494Y386006D01*
X487719Y387838D01*
X488148Y390000D01*
X487719Y392162D01*
X486494Y393994D01*
X486385Y394067D01*
Y398391D01*
X490119Y402125D01*
X492750D01*
Y400570D01*
X509630D01*
Y411450D01*
X492750D01*
Y409895D01*
X488510D01*
X487023Y409599D01*
X485763Y408757D01*
X480154Y403148D01*
X478885Y403674D01*
Y450933D01*
X478994Y451006D01*
X480218Y452838D01*
X480648Y455000D01*
X480218Y457161D01*
X478994Y458994D01*
X477161Y460218D01*
X475000Y460648D01*
X472838Y460218D01*
X471006Y458994D01*
X469781Y457161D01*
X469351Y455000D01*
X469781Y452838D01*
X471006Y451006D01*
X471115Y450933D01*
Y435606D01*
X469845Y435220D01*
X468994Y436494D01*
X467162Y437719D01*
X465000Y438148D01*
X462838Y437719D01*
X461006Y436494D01*
X460205Y435295D01*
X456430D01*
Y436850D01*
X439550D01*
Y425970D01*
X456430D01*
Y427525D01*
X462473D01*
X462838Y427281D01*
X465000Y426852D01*
X467162Y427281D01*
X468994Y428506D01*
X469845Y429780D01*
X471115Y429394D01*
Y381609D01*
X462253Y372747D01*
X461411Y371487D01*
X461115Y370000D01*
Y332668D01*
X459845Y332282D01*
X459564Y332704D01*
X453634Y338634D01*
X451967Y339748D01*
X450000Y340139D01*
X441540D01*
Y345540D01*
X440898D01*
X440000Y346438D01*
Y370000D01*
X400000D01*
Y443615D01*
X401960D01*
Y435960D01*
X414040D01*
Y454040D01*
X401960D01*
Y451385D01*
X400000D01*
Y540000D01*
X547302Y540000D01*
X548200Y539102D01*
Y533150D01*
X553000D01*
X557800D01*
Y540000D01*
X565062D01*
X565960Y539102D01*
Y523460D01*
X568115D01*
Y520500D01*
X568411Y519013D01*
X569253Y517753D01*
X571503Y515503D01*
Y510680D01*
X568276D01*
Y497472D01*
X570491D01*
Y483600D01*
X567772D01*
Y469376D01*
X580980D01*
Y483600D01*
X578260D01*
Y497472D01*
X582500D01*
Y510680D01*
X579272D01*
Y517112D01*
X578977Y518599D01*
X578135Y519859D01*
X575885Y522109D01*
Y523460D01*
X578040D01*
Y540000D01*
X589102D01*
X590000Y539102D01*
D02*
G37*
%LPC*%
G36*
X432010Y391210D02*
X423360D01*
Y384060D01*
X432010D01*
Y391210D01*
D02*
G37*
G36*
X422060D02*
X413410D01*
Y384060D01*
X422060D01*
Y391210D01*
D02*
G37*
G36*
Y382760D02*
X413410D01*
Y375610D01*
X422060D01*
Y382760D01*
D02*
G37*
G36*
X432010D02*
X423360D01*
Y375610D01*
X432010D01*
Y382760D01*
D02*
G37*
G36*
X456430Y398750D02*
X439550D01*
Y387870D01*
X456430D01*
Y398750D01*
D02*
G37*
G36*
X526850Y406350D02*
X519700D01*
Y402200D01*
X526850D01*
Y406350D01*
D02*
G37*
G36*
X535300D02*
X528150D01*
Y402200D01*
X535300D01*
Y406350D01*
D02*
G37*
G36*
X550000Y423149D02*
X547838Y422719D01*
X546006Y421494D01*
X544781Y419662D01*
X544352Y417500D01*
X544781Y415338D01*
X545469Y414310D01*
X544790Y413040D01*
X540960D01*
Y400960D01*
X559040D01*
Y413040D01*
X555210D01*
X554532Y414310D01*
X555219Y415338D01*
X555648Y417500D01*
X555219Y419662D01*
X553994Y421494D01*
X552162Y422719D01*
X550000Y423149D01*
D02*
G37*
G36*
X572500Y423669D02*
X570338Y423238D01*
X568506Y422014D01*
X567281Y420182D01*
X566852Y418020D01*
X567281Y415858D01*
X568182Y414510D01*
X567570Y413240D01*
X562950D01*
Y395510D01*
X562950Y395160D01*
Y394700D01*
Y394240D01*
X562950Y393890D01*
Y391805D01*
X561680Y391126D01*
X560987Y391589D01*
X559500Y391885D01*
X559040D01*
Y394040D01*
X540960D01*
Y391885D01*
X536540D01*
Y394040D01*
X518460D01*
Y393693D01*
X517287Y393207D01*
X514437Y396057D01*
X513177Y396899D01*
X511690Y397195D01*
X509630D01*
Y398750D01*
X492750D01*
Y387870D01*
X509630D01*
Y388080D01*
X510900Y388606D01*
X514253Y385253D01*
X515513Y384411D01*
X515760Y384362D01*
X517000Y384115D01*
X518460D01*
Y381960D01*
X536540D01*
Y384115D01*
X540960D01*
Y381960D01*
X559040D01*
X559040Y381960D01*
Y381960D01*
X560306Y381950D01*
X560813Y381611D01*
X562300Y381315D01*
X562950D01*
Y376160D01*
X584030D01*
Y393890D01*
X584030Y394240D01*
Y394700D01*
Y395160D01*
X584030Y395510D01*
Y413240D01*
X577375D01*
Y415344D01*
X577719Y415858D01*
X578148Y418020D01*
X577719Y420182D01*
X576494Y422014D01*
X574662Y423238D01*
X572500Y423669D01*
D02*
G37*
G36*
X456430Y411450D02*
X439550D01*
Y400570D01*
X456430D01*
Y411450D01*
D02*
G37*
G36*
Y386050D02*
X439550D01*
Y375170D01*
X456430D01*
Y386050D01*
D02*
G37*
G36*
X506080Y309901D02*
X504401Y309680D01*
X502231Y308782D01*
X500368Y307352D01*
X498938Y305488D01*
X498040Y303319D01*
X497819Y301640D01*
X506080D01*
Y309901D01*
D02*
G37*
G36*
X507380D02*
Y301640D01*
X515641D01*
X515420Y303319D01*
X514522Y305488D01*
X513092Y307352D01*
X511228Y308782D01*
X509059Y309680D01*
X507380Y309901D01*
D02*
G37*
G36*
X515641Y300340D02*
X507380D01*
Y292079D01*
X509059Y292300D01*
X511228Y293198D01*
X513092Y294628D01*
X514522Y296492D01*
X515420Y298661D01*
X515641Y300340D01*
D02*
G37*
G36*
X532130Y311238D02*
X529478Y310889D01*
X527006Y309865D01*
X524884Y308236D01*
X523255Y306114D01*
X522231Y303642D01*
X521882Y300990D01*
X522231Y298338D01*
X523255Y295866D01*
X524884Y293744D01*
X527006Y292115D01*
X529478Y291091D01*
X532130Y290742D01*
X534782Y291091D01*
X537254Y292115D01*
X539376Y293744D01*
X541005Y295866D01*
X542029Y298338D01*
X542378Y300990D01*
X542029Y303642D01*
X541005Y306114D01*
X539376Y308236D01*
X537254Y309865D01*
X534782Y310889D01*
X532130Y311238D01*
D02*
G37*
G36*
X506080Y300340D02*
X497819D01*
X498040Y298661D01*
X498938Y296492D01*
X500368Y294628D01*
X502231Y293198D01*
X504401Y292300D01*
X506080Y292079D01*
Y300340D01*
D02*
G37*
G36*
X529938Y364940D02*
X524716D01*
Y360226D01*
X529938D01*
Y364940D01*
D02*
G37*
G36*
X536460D02*
X531238D01*
Y360226D01*
X536460D01*
Y364940D01*
D02*
G37*
G36*
Y358926D02*
X531238D01*
Y354212D01*
X536460D01*
Y358926D01*
D02*
G37*
G36*
X537700Y347028D02*
X523476D01*
Y333820D01*
X537700D01*
Y335285D01*
X542084D01*
X542838Y334781D01*
X545000Y334352D01*
X547162Y334781D01*
X548994Y336006D01*
X550219Y337838D01*
X550648Y340000D01*
X550219Y342162D01*
X548994Y343994D01*
X547162Y345219D01*
X545000Y345649D01*
X544569Y345563D01*
X537700D01*
Y347028D01*
D02*
G37*
G36*
X529938Y358926D02*
X524716D01*
Y354212D01*
X529938D01*
Y358926D01*
D02*
G37*
G36*
X561324Y501028D02*
X547100D01*
Y487820D01*
X550327D01*
Y483600D01*
X548620D01*
Y483091D01*
X547500Y482492D01*
X547161Y482718D01*
X545000Y483148D01*
X542838Y482718D01*
X541006Y481494D01*
X539781Y479661D01*
X539351Y477500D01*
X539781Y475338D01*
X541006Y473506D01*
X542838Y472281D01*
X545000Y471851D01*
X547161Y472281D01*
X547500Y472507D01*
X548620Y471909D01*
Y469376D01*
X561828D01*
Y483600D01*
X558097D01*
Y487820D01*
X561324D01*
Y501028D01*
D02*
G37*
G36*
X451540Y506540D02*
X433460D01*
Y504385D01*
X430909D01*
X429661Y505218D01*
X427500Y505648D01*
X425338Y505218D01*
X423506Y503994D01*
X422281Y502161D01*
X421851Y500000D01*
X422281Y497838D01*
X423506Y496006D01*
X425338Y494781D01*
X427500Y494351D01*
X429661Y494781D01*
X431494Y496006D01*
X431901Y496615D01*
X433460D01*
Y494460D01*
X451540D01*
Y496615D01*
X454680D01*
Y494170D01*
X460495D01*
Y492270D01*
X455340D01*
Y471190D01*
X460495D01*
Y463489D01*
X457701Y460695D01*
X456430D01*
Y462250D01*
X439550D01*
Y451370D01*
X456430D01*
Y452925D01*
X459310D01*
X460797Y453221D01*
X462057Y454063D01*
X467127Y459133D01*
X467969Y460393D01*
X468265Y461880D01*
Y470292D01*
X469163Y471190D01*
X473070D01*
X473420Y471190D01*
X473880D01*
X474340D01*
X474690Y471190D01*
X492420D01*
Y492270D01*
X487265D01*
Y494170D01*
X493080D01*
Y506250D01*
X475000D01*
Y494170D01*
X478848D01*
X479227Y492900D01*
X478597Y492270D01*
X474690D01*
X474340Y492270D01*
X473880D01*
X473420D01*
X473070Y492270D01*
X468265D01*
Y494170D01*
X472760D01*
Y506250D01*
X454680D01*
Y504385D01*
X451540D01*
Y506540D01*
D02*
G37*
G36*
X571480Y462424D02*
X558272D01*
Y459197D01*
X548691D01*
X547161Y460218D01*
X545000Y460648D01*
X542838Y460218D01*
X541006Y458994D01*
X539781Y457161D01*
X539351Y455000D01*
X539781Y452838D01*
X541006Y451006D01*
X542838Y449781D01*
X545000Y449351D01*
X547161Y449781D01*
X548994Y451006D01*
X549276Y451427D01*
X558272D01*
Y448200D01*
X570615D01*
Y444040D01*
X568460D01*
Y425960D01*
X580540D01*
Y444040D01*
X578385D01*
Y450500D01*
X578089Y451987D01*
X577247Y453247D01*
X572435Y458059D01*
X571480Y458697D01*
Y462424D01*
D02*
G37*
G36*
X433040Y454040D02*
X420960D01*
Y435960D01*
X433040D01*
Y441115D01*
X439550D01*
Y438670D01*
X456430D01*
Y449550D01*
X439550D01*
Y448885D01*
X433040D01*
Y454040D01*
D02*
G37*
G36*
X513040Y506290D02*
X494960D01*
Y494210D01*
X500115D01*
Y485609D01*
X498443Y483937D01*
X497601Y482677D01*
X497305Y481190D01*
Y462250D01*
X492750D01*
Y460695D01*
X489560D01*
X488320Y460448D01*
X488073Y460399D01*
X486813Y459557D01*
X484003Y456747D01*
X483161Y455487D01*
X482865Y454000D01*
Y446250D01*
X483161Y444763D01*
X484003Y443503D01*
X486143Y441363D01*
X487403Y440521D01*
X488890Y440225D01*
X492750D01*
Y438670D01*
X509630D01*
Y449550D01*
X492750D01*
Y447995D01*
X490635D01*
Y452391D01*
X491169Y452925D01*
X492750D01*
Y451370D01*
X509630D01*
Y462250D01*
X505075D01*
Y479581D01*
X506747Y481253D01*
X507589Y482513D01*
X507638Y482760D01*
X507885Y484000D01*
Y494210D01*
X513040D01*
Y506290D01*
D02*
G37*
G36*
X552350Y531850D02*
X548200D01*
Y524700D01*
X552350D01*
Y531850D01*
D02*
G37*
G36*
X557800D02*
X553650D01*
Y524700D01*
X557800D01*
Y531850D01*
D02*
G37*
G36*
X513040Y525290D02*
X494960D01*
Y523095D01*
X493080D01*
Y525250D01*
X475000D01*
Y523095D01*
X472760D01*
Y525250D01*
X454680D01*
Y513170D01*
X472760D01*
Y515325D01*
X475000D01*
Y513170D01*
X493080D01*
Y515325D01*
X494960D01*
Y513210D01*
X513040D01*
Y515365D01*
X521641D01*
X528615Y508391D01*
Y468105D01*
X527345Y467720D01*
X526494Y468994D01*
X524661Y470218D01*
X522500Y470648D01*
X520338Y470218D01*
X518506Y468994D01*
X517281Y467161D01*
X516851Y465000D01*
X517281Y462838D01*
X518506Y461006D01*
X518615Y460933D01*
Y436609D01*
X517301Y435295D01*
X509630D01*
Y436850D01*
X492750D01*
Y425970D01*
X509630D01*
Y427525D01*
X518910D01*
X520397Y427821D01*
X521657Y428663D01*
X525247Y432253D01*
X526089Y433513D01*
X526385Y435000D01*
X526385Y435001D01*
Y460933D01*
X526494Y461006D01*
X527345Y462280D01*
X528615Y461894D01*
Y435000D01*
X528911Y433514D01*
X529406Y432773D01*
X529352Y432500D01*
X529781Y430338D01*
X531006Y428506D01*
X532838Y427281D01*
X535000Y426852D01*
X537162Y427281D01*
X538994Y428506D01*
X540219Y430338D01*
X540648Y432500D01*
X540219Y434662D01*
X538994Y436494D01*
X537162Y437719D01*
X536385Y437873D01*
Y510000D01*
X536089Y511487D01*
X535247Y512747D01*
X525997Y521997D01*
X524737Y522839D01*
X523250Y523135D01*
X513040D01*
Y525290D01*
D02*
G37*
G36*
X542500Y520648D02*
X540338Y520218D01*
X538506Y518994D01*
X537281Y517161D01*
X536851Y515000D01*
X537281Y512838D01*
X538506Y511006D01*
X540338Y509781D01*
X542500Y509351D01*
X544661Y509781D01*
X545830Y510562D01*
X547100Y509883D01*
Y506972D01*
X561324D01*
Y520180D01*
X547100D01*
Y520117D01*
X545830Y519438D01*
X544661Y520218D01*
X542500Y520648D01*
D02*
G37*
G36*
X427500Y525648D02*
X425338Y525219D01*
X423506Y523994D01*
X422281Y522162D01*
X421852Y520000D01*
X422281Y517838D01*
X423506Y516006D01*
X425338Y514781D01*
X427500Y514352D01*
X429662Y514781D01*
X431494Y516006D01*
X431567Y516115D01*
X433460D01*
Y513460D01*
X451540D01*
Y525540D01*
X433460D01*
Y523885D01*
X431567D01*
X431494Y523994D01*
X429662Y525219D01*
X427500Y525648D01*
D02*
G37*
G36*
X560300Y442800D02*
X556150D01*
Y435650D01*
X560300D01*
Y442800D01*
D02*
G37*
G36*
X508390Y418060D02*
X501840D01*
Y414510D01*
X508390D01*
Y418060D01*
D02*
G37*
G36*
X500540Y422910D02*
X493990D01*
Y419360D01*
X500540D01*
Y422910D01*
D02*
G37*
G36*
Y418060D02*
X493990D01*
Y414510D01*
X500540D01*
Y418060D01*
D02*
G37*
G36*
X526850Y411800D02*
X519700D01*
Y407650D01*
X526850D01*
Y411800D01*
D02*
G37*
G36*
X535300D02*
X528150D01*
Y407650D01*
X535300D01*
Y411800D01*
D02*
G37*
G36*
X560300Y434350D02*
X556150D01*
Y427200D01*
X560300D01*
Y434350D01*
D02*
G37*
G36*
X554850Y442800D02*
X550700D01*
Y435650D01*
X554850D01*
Y442800D01*
D02*
G37*
G36*
Y434350D02*
X550700D01*
Y427200D01*
X554850D01*
Y434350D01*
D02*
G37*
G36*
X508390Y422910D02*
X501840D01*
Y419360D01*
X508390D01*
Y422910D01*
D02*
G37*
G36*
X456430Y424150D02*
X439550D01*
Y422595D01*
X424439D01*
X422710Y422938D01*
X420549Y422509D01*
X418716Y421284D01*
X417491Y419452D01*
X417062Y417290D01*
X417491Y415128D01*
X418716Y413296D01*
X418825Y413223D01*
Y411450D01*
X412170D01*
Y393370D01*
X433250D01*
Y411450D01*
X426595D01*
Y413223D01*
X426704Y413296D01*
X427726Y414825D01*
X439550D01*
Y413270D01*
X456430D01*
Y424150D01*
D02*
G37*
%LPD*%
D10*
X575388Y504076D02*
D03*
X554212Y494424D02*
D03*
Y513576D02*
D03*
X358088Y417576D02*
D03*
X336912Y407924D02*
D03*
Y427076D02*
D03*
X509412Y349924D02*
D03*
X530588Y359576D02*
D03*
Y340424D02*
D03*
D11*
X564876Y455312D02*
D03*
X555224Y476488D02*
D03*
X574376D02*
D03*
D12*
X572000Y532500D02*
D03*
X553000D02*
D03*
X574500Y435000D02*
D03*
X555500D02*
D03*
X357000Y447500D02*
D03*
X338000D02*
D03*
Y467500D02*
D03*
X357000D02*
D03*
X427000Y445000D02*
D03*
X408000D02*
D03*
D13*
X463720Y500210D02*
D03*
Y519210D02*
D03*
X484040D02*
D03*
Y500210D02*
D03*
X442500Y519500D02*
D03*
Y500500D02*
D03*
X504000Y500250D02*
D03*
Y519250D02*
D03*
X300000Y447000D02*
D03*
Y428000D02*
D03*
Y409500D02*
D03*
Y390500D02*
D03*
Y372000D02*
D03*
Y353000D02*
D03*
X487500Y340500D02*
D03*
Y359500D02*
D03*
X550000Y388000D02*
D03*
Y407000D02*
D03*
X527500D02*
D03*
Y388000D02*
D03*
D14*
X464380Y481730D02*
D03*
X483380D02*
D03*
D15*
X405500Y335000D02*
D03*
X434500D02*
D03*
D16*
X573490Y404200D02*
D03*
Y385200D02*
D03*
X422710Y402410D02*
D03*
Y383410D02*
D03*
D17*
X299330Y331170D02*
D03*
Y302170D02*
D03*
D18*
X447990Y380610D02*
D03*
Y393310D02*
D03*
Y406010D02*
D03*
Y418710D02*
D03*
Y431410D02*
D03*
Y444110D02*
D03*
Y456810D02*
D03*
X501190D02*
D03*
Y444110D02*
D03*
Y431410D02*
D03*
Y418710D02*
D03*
Y406010D02*
D03*
Y393310D02*
D03*
Y380610D02*
D03*
D19*
X465000Y370000D02*
X475000Y380000D01*
X465000Y317320D02*
Y370000D01*
Y317320D02*
X481330Y300990D01*
X475000Y380000D02*
Y455000D01*
X522500Y435000D02*
Y465000D01*
Y435000D02*
X522500Y435000D01*
X518910Y431410D02*
X522500Y435000D01*
X545000Y455000D02*
X545312Y455312D01*
X564876D01*
X447990Y456810D02*
X459310D01*
X464380Y461880D01*
Y481730D01*
X532500Y435000D02*
Y510000D01*
Y435000D02*
X535000Y432500D01*
X523790Y418710D02*
X527500Y415000D01*
X501190Y418710D02*
X523790D01*
X545000Y477500D02*
X554212D01*
X523250Y519250D02*
X532500Y510000D01*
X554212Y477500D02*
Y494424D01*
X552788Y515000D02*
X554212Y513576D01*
X542500Y515000D02*
X552788D01*
X427500Y500000D02*
X428000Y500500D01*
X442500D01*
X575388Y504076D02*
Y517112D01*
X572000Y520500D02*
X575388Y517112D01*
X572000Y520500D02*
Y532500D01*
X574376Y476488D02*
Y503064D01*
X574500Y435000D02*
Y450500D01*
X569688Y455312D02*
X574500Y450500D01*
X564876Y455312D02*
X569688D01*
X504000Y484000D02*
Y500250D01*
X501190Y481190D02*
X504000Y484000D01*
Y519250D02*
X523250D01*
X463910Y431410D02*
X465000Y432500D01*
X447990Y431410D02*
X463910D01*
X427500Y520000D02*
X442000D01*
X442500Y519500D01*
X501190Y456810D02*
Y481190D01*
X484040Y519210D02*
X503960D01*
X463720D02*
X484040D01*
X483380Y481730D02*
Y500210D01*
X464380Y481730D02*
Y500210D01*
X442500Y500500D02*
X463430D01*
X387500Y447500D02*
X405500D01*
X357000D02*
X387500D01*
Y387500D02*
Y447500D01*
X405500D02*
X408000Y445000D01*
X427000D02*
X447100D01*
X486750Y454000D02*
X489560Y456810D01*
X486750Y446250D02*
Y454000D01*
Y446250D02*
X488890Y444110D01*
X501190D01*
X489560Y456810D02*
X501190D01*
X482500Y390000D02*
Y400000D01*
Y380610D02*
Y390000D01*
Y375000D02*
Y380610D01*
X372424Y417576D02*
X372500Y417500D01*
X358088Y417576D02*
X372424D01*
X501190Y431410D02*
X518910D01*
X357000Y467500D02*
X370000D01*
X422710Y417290D02*
X424130Y418710D01*
X447990D01*
X487500Y359500D02*
Y370000D01*
X482500Y375000D02*
X487500Y370000D01*
X482500Y400000D02*
X488510Y406010D01*
X482500Y380610D02*
X501190D01*
X473000Y340500D02*
X487500D01*
X473000D02*
X473500Y340000D01*
X501190Y371310D02*
Y380610D01*
Y371310D02*
X509412Y363088D01*
Y349924D02*
Y363088D01*
X488510Y406010D02*
X501190D01*
X422710Y402410D02*
Y417290D01*
X358088Y417576D02*
Y446412D01*
X336912Y427076D02*
Y446412D01*
X338000Y447500D02*
Y467500D01*
X300000Y447000D02*
X337500D01*
X336912Y407924D02*
Y427076D01*
X527500Y407000D02*
Y415000D01*
X517000Y388000D02*
X527500D01*
X511690Y393310D02*
X517000Y388000D01*
X501190Y393310D02*
X511690D01*
X550000Y388000D02*
X559500D01*
X527500D02*
X550000D01*
X559500D02*
X562300Y385200D01*
X573490D01*
Y404200D02*
Y419010D01*
X572500Y418020D02*
X573490Y419010D01*
X550000Y407000D02*
Y417500D01*
D20*
X300510Y300990D02*
X354330D01*
X455930D02*
Y329070D01*
X450000Y335000D02*
X455930Y329070D01*
X434500Y335000D02*
X450000D01*
X405130Y300990D02*
Y334630D01*
X300000Y410000D02*
Y428000D01*
Y372000D02*
Y390000D01*
X299330Y331170D02*
Y352330D01*
X530588Y340424D02*
X544576D01*
X260000Y250000D02*
X600000D01*
Y550000D01*
X260000D02*
X600000D01*
X260000Y250000D02*
Y550000D01*
D21*
X481330Y300990D02*
D03*
X455930D02*
D03*
X405130D02*
D03*
X506730D02*
D03*
X532130D02*
D03*
D22*
X354330D02*
D03*
D23*
X475000Y455000D02*
D03*
X522500Y465000D02*
D03*
X545000Y455000D02*
D03*
X535000Y432500D02*
D03*
X545000Y477500D02*
D03*
X542500Y515000D02*
D03*
X427500Y500000D02*
D03*
X465000Y432500D02*
D03*
X427500Y520000D02*
D03*
X387500Y387500D02*
D03*
X482500Y390000D02*
D03*
X372500Y417500D02*
D03*
X370000Y467500D02*
D03*
X422710Y417290D02*
D03*
X473500Y340000D02*
D03*
X572500Y418020D02*
D03*
X550000Y417500D02*
D03*
X545000Y340000D02*
D03*
M02*
